<svg width="1918" height="400" viewBox="0 0 1918 400" fill="none" xmlns="http://www.w3.org/2000/svg">
<mask id="mask0_5_674" style="mask-type:luminance" maskUnits="userSpaceOnUse" x="-2" y="0" width="1920" height="400">
<path d="M1918 0H-2V400H1918V0Z" fill="white"/>
</mask>
<g mask="url(#mask0_5_674)">
<path d="M1918 0H-2V400H1918V0Z" fill="#07242B"/>
<mask id="mask1_5_674" style="mask-type:luminance" maskUnits="userSpaceOnUse" x="-2" y="0" width="1920" height="400">
<path d="M1918 0H-2V400H1918V0Z" fill="white"/>
</mask>
<g mask="url(#mask1_5_674)">
<g opacity="0.05">
<path d="M1293.2 0H1291.25C1278.19 9.46647 1268.41 20.8935 1270.13 36.5976C1271.05 44.9512 1273.33 53.1818 1275.54 61.1341C1281.72 83.4124 1287.54 104.487 1262.02 123.737C1252.23 131.139 1240.16 137.215 1228.47 143.084C1209.2 152.79 1189.27 162.8 1178.26 179.222C1165.86 197.728 1172.54 220.207 1180.3 235.808C1181.72 238.655 1183.38 241.599 1184.97 244.439C1193.7 260.001 1202.75 276.081 1180.89 288.045C1166.44 295.945 1147.42 299.912 1129.03 303.742C1120.54 305.515 1112.49 307.191 1104.97 309.223C1077.61 316.619 1053.3 323.749 1032.8 336.251C994.4 359.674 1001.77 388.429 1009.6 418.873C1012.06 428.392 1014.58 438.24 1015.74 448.088C1020.62 489.778 983.008 511.875 946.64 533.248C940.728 536.716 934.64 540.314 928.832 543.911C888.952 568.706 873.024 603.725 856.152 640.802C853.008 647.706 849.752 654.843 846.376 661.831C837.328 680.525 828.168 703.042 828.872 728.368C828.976 732.341 830.248 737.427 831.6 742.765C834.8 755.415 838.376 769.748 829.392 777.37C819.216 785.976 798.4 787.367 765.752 781.602C747.352 778.366 721.208 771.249 701.32 755.719C669.96 731.325 678.56 694.326 686.12 661.682C688.472 651.556 690.696 641.992 691.816 632.927C691.944 631.84 692.096 630.682 692.248 629.465C694.2 614.324 697.472 589.037 686.904 577.053C682.432 561.99 670.168 549.838 658.312 538.081C654.128 533.934 649.8 529.669 645.944 525.341C630.448 508.025 635.944 494.884 646.096 476.811C651.08 467.953 656.944 459.256 662.616 450.838C670.52 439.107 678.696 426.975 684.624 414.208C702.344 376.032 689.92 339.253 652.992 320.424C627.536 307.482 598.288 309.514 575.656 312.762C572.416 313.222 569.144 313.746 565.68 314.309C543.72 317.848 518.824 321.854 500.928 308.634C492.832 302.642 486.84 293.907 483.144 282.668C481.096 276.449 479.944 269.927 478.8 263.618C478.616 262.622 478.504 260.81 478.376 258.707C477.856 250.554 477.16 243.068 474.248 241.062C471.72 237.218 470.608 232.728 469.448 227.972C468.168 222.795 466.84 217.464 463.544 212.837C461.856 203.131 449.944 190.526 440.344 180.406C437.448 177.346 434.744 174.46 432.632 172.04C397.744 131.275 347.832 84.1953 270.744 81.5423C264.184 81.3159 257.272 81.3353 250.584 81.3547C228.616 81.4129 205.912 81.4647 186.584 73.59C157.256 61.6259 150.8 28.5935 157.2 0H155.896C149.432 28.9171 156.144 62.3441 185.984 74.5282C205.592 82.5259 228.48 82.4806 250.576 82.4159C257.552 82.4159 264.176 82.3835 270.672 82.61C347.168 85.2371 396.832 132.11 431.56 172.655C433.656 175.101 436.36 177.993 439.312 181.066C448.84 191.122 460.704 203.642 462.28 213.115L462.36 213.303C465.56 217.8 466.904 223.093 468.168 228.185C469.376 233.051 470.512 237.645 473.168 241.651L473.344 241.812C476.136 243.572 476.728 253.078 477.088 258.765C477.216 260.888 477.336 262.719 477.52 263.773C478.656 270.102 479.832 276.656 481.896 282.933C485.664 294.373 491.776 303.276 500.064 309.404C518.464 322.992 543.672 318.916 565.928 315.331C569.384 314.775 572.648 314.251 575.872 313.785C598.272 310.549 627.224 308.531 652.304 321.31C688.696 339.855 700.912 376.181 683.424 413.839C677.52 426.541 669.376 438.641 661.488 450.34C655.808 458.752 649.92 467.487 644.928 476.378C634.896 494.211 629.032 508.206 644.928 525.942C648.808 530.271 653.144 534.568 657.336 538.728C669.136 550.414 681.336 562.501 685.712 577.377L685.816 577.571C696.216 589.218 692.928 614.344 690.992 629.336C690.84 630.559 690.688 631.724 690.552 632.798C689.448 641.818 687.224 651.362 684.872 661.456C677.216 694.365 668.544 731.662 700.416 756.457C720.528 772.103 746.88 779.292 765.464 782.579C778.64 784.908 789.936 786.066 799.424 786.066C813.768 786.066 823.976 783.401 830.304 778.043C839.76 770.032 836.088 755.396 832.848 742.519C831.512 737.201 830.24 732.166 830.144 728.284C829.448 703.146 838.552 680.751 847.552 662.161C850.944 655.16 854.192 648.004 857.344 641.093C874.144 604.165 890.016 569.269 929.592 544.681C935.376 541.09 941.48 537.499 947.376 534.037C984.04 512.49 1021.94 490.218 1016.98 447.933C1015.81 438.02 1013.27 428.152 1010.82 418.602C1003.09 388.494 995.776 360.049 1033.54 337.027C1053.88 324.623 1078.09 317.518 1105.34 310.155C1112.81 308.136 1120.83 306.466 1129.34 304.7C1147.82 300.818 1166.94 296.858 1181.58 288.847C1204.35 276.398 1195.07 259.904 1186.12 243.954C1184.52 241.114 1182.86 238.182 1181.46 235.361C1173.81 219.968 1167.21 197.832 1179.37 179.662C1190.21 163.486 1209.99 153.534 1229.12 143.919C1240.85 138.018 1252.99 131.916 1262.88 124.442C1288.94 104.746 1283.02 83.4188 1276.78 60.8429C1274.57 52.9229 1272.29 44.7312 1271.38 36.4488C1269.67 20.8288 1279.82 9.44706 1293.2 0Z" fill="#EFF1F2"/>
<path d="M1207.44 0C1206.28 32.8576 1148.98 55.4335 1114.05 69.2353C1111.94 70.0571 1109.92 70.8594 1107.98 71.6229C1094.74 76.8965 1081.1 81.4971 1067.9 85.9424C1033.13 97.6671 1000.28 108.745 972.344 131.463C963.648 138.535 955.92 146.404 948.456 154.019C941.144 161.467 933.576 169.174 925.192 176.019C906.456 191.316 885.864 201.112 854.152 209.841L853.912 209.919C837.912 215.451 810.96 211.808 791.072 206.554C774.408 202.148 758.504 194.907 743.12 187.861C735.192 184.244 727 180.504 718.832 177.216L718.456 177.061L718.04 176.996C707.64 175.295 700.376 181.028 694.04 186.055C691.978 187.78 689.77 189.387 687.432 190.863L687.008 191.161C678.115 198.707 668.062 205.3 657.096 210.779C631.328 223.559 608.928 225.202 590.52 215.665C582.952 211.782 578.008 206.153 576.208 199.488C574.12 191.724 576.472 182.788 582.656 175.004C589.367 166.677 598.75 159.983 609.802 155.637C620.854 151.291 633.159 149.457 645.4 150.331C650.696 150.732 658.816 153.321 667.408 156.071C685.112 161.732 705.184 168.151 715.408 160.296C727.808 150.804 732.832 131.094 731.248 117.376C726.088 72.27 674.8 69.8824 633.576 67.9735C629.504 67.7859 625.472 67.5918 621.536 67.3718C567.368 64.3047 521.064 45.4818 494.512 15.7171C494.08 15.2318 493.592 14.6947 493.072 14.1253C489.872 10.5794 484.608 4.82059 483.104 0H476.56C477.928 6.25706 483.872 12.8053 487.896 17.2182L489.304 18.7712C516.976 49.7976 565.008 69.41 621.096 72.5806C625.048 72.8006 629.096 72.9882 633.208 73.1824C675.976 75.1688 720.192 77.2265 724.848 117.829C726.296 130.499 721.504 148.416 710.992 156.478C703.704 162.056 684.864 156.032 669.736 151.192C660.704 148.306 652.136 145.575 645.952 145.109C632.538 144.156 619.055 146.168 606.945 150.932C594.836 155.696 584.554 163.032 577.2 172.156C570.096 181.105 567.424 191.471 569.88 200.588C572.048 208.638 577.968 215.367 587.008 220.052C595.667 224.57 605.768 226.947 616.072 226.891C629.784 226.891 644.736 223.009 660.408 215.244C671.759 209.566 682.175 202.747 691.408 194.952C693.907 193.355 696.272 191.626 698.488 189.776C704.088 185.311 709.44 181.079 716.36 182.011C724.24 185.195 732.224 188.844 739.944 192.364C755.6 199.514 771.792 206.904 789.064 211.472C810.024 217.004 838.664 220.757 856.312 214.707C888.984 205.706 910.264 195.548 929.744 179.656C938.376 172.609 946.048 164.774 953.472 157.229C960.896 149.684 968.44 141.971 976.888 135.106C1003.92 113.106 1036.18 102.248 1070.36 90.7177C1083.64 86.2465 1097.36 81.6135 1110.82 76.2753L1116.84 73.8876C1153.2 59.5618 1212.86 36.0671 1213.89 0H1207.44Z" fill="#EFF1F2"/>
<path d="M1387.47 727.741C1430.67 749.631 1489.31 751.268 1532.16 752.471C1534.28 752.536 1536.49 752.575 1538.74 752.62C1562.13 753.151 1591.23 753.798 1606.78 768.001C1619.87 779.971 1619.58 796.743 1614.84 808.597C1612.07 812.127 1609.66 815.834 1607.64 819.681C1604.56 825.117 1601.67 830.248 1595.98 834.868C1587.64 841.504 1577.95 846.93 1567.33 850.908C1558.26 854.383 1548.56 857.023 1539.19 859.579C1526.87 862.911 1514.14 866.379 1502.34 871.834C1464.74 889.214 1455.8 922.777 1475.77 971.598C1479.28 980.217 1483.5 989.152 1487.56 997.797C1503.3 1031.24 1519.56 1065.78 1507.03 1100.03H1513.75C1525.9 1064.67 1509.49 1029.78 1493.56 995.972C1489.34 986.985 1485.34 978.502 1481.86 969.986C1463 923.858 1470.97 892.339 1505.54 876.396C1516.78 871.219 1529.2 867.822 1541.23 864.548C1550.83 861.96 1560.67 859.268 1570.08 855.651C1581.37 851.422 1591.67 845.647 1600.54 838.582C1607.03 833.308 1610.31 827.498 1613.49 821.888C1615.58 818.18 1617.56 814.667 1620.44 811.244L1620.7 810.939L1620.85 810.603C1627.74 793.702 1624.19 776.063 1611.61 764.571C1594.22 748.686 1563.61 747.994 1538.95 747.45C1536.7 747.398 1534.54 747.346 1532.41 747.282C1490.3 746.111 1432.62 744.493 1390.9 723.341C1380.89 718.261 1375.22 711.952 1373.59 704.045C1368.92 681.333 1399.74 650.495 1418.16 632.086C1420.39 629.847 1422.49 627.751 1424.36 625.829C1426.23 623.907 1428.2 621.882 1430.18 619.85C1458.66 590.389 1494.11 553.714 1542.86 562.559C1595.59 572.104 1637.85 599.442 1683.72 631.581C1729.05 663.287 1784.22 659.547 1827.22 652.721C1858.97 647.68 1881.56 636.305 1887.69 622.309C1892.25 611.833 1888.16 600.309 1875.47 588.015C1867 579.791 1857.23 572.485 1847.78 565.368C1837.74 557.836 1827.34 550.052 1818.66 541.258C1804.39 526.842 1795.66 510.652 1786.42 493.512C1785.03 490.924 1783.66 488.387 1782.23 485.818C1771.14 465.572 1757.31 451.116 1738.72 440.324C1724.82 432.242 1709.46 427.564 1694.61 423.047C1686.69 420.627 1678.49 418.129 1670.61 415.14C1646.08 405.848 1648.75 391.296 1652.42 371.14C1652.64 369.949 1652.88 368.739 1653.1 367.523C1657.69 341.751 1647.83 321.627 1631.61 299.336C1604.16 261.593 1604.26 228.373 1631.98 194.784C1644.83 179.255 1659.67 164.288 1674.05 149.826C1697.36 126.371 1721.47 102.112 1738.05 74.2435C1738.38 73.6806 1738.74 73.1112 1739.08 72.5353C1742.85 66.3753 1747.98 57.9441 1739.88 50.5353C1733.01 44.2135 1722.86 40.6288 1713.04 37.1671C1709.19 35.8082 1705.57 34.5335 1702.27 33.1359C1680.83 24.0318 1665.9 12.9412 1657.59 0H1650.39C1658.95 14.9147 1675.3 27.5712 1699.25 37.7494C1702.75 39.2312 1706.49 40.5512 1710.45 41.9424C1719.63 45.1776 1729.12 48.5294 1735.06 53.9841C1739.9 58.4359 1737.5 63.3018 1733.27 70.2188C1732.91 70.8076 1732.55 71.3965 1732.21 71.9724C1715.94 99.3041 1692.07 123.329 1669.01 146.552C1654.55 161.092 1639.62 176.136 1626.61 191.879C1597.36 227.331 1597.18 262.318 1626.03 301.989C1642.03 323.937 1651.03 342.43 1646.69 366.779C1646.47 367.989 1646.25 369.192 1646.03 370.376C1642.41 390.196 1638.98 408.915 1667.86 419.857C1676 422.931 1684.31 425.467 1692.36 427.919C1707.47 432.52 1721.75 436.875 1734.97 444.549C1752.57 454.779 1765.75 468.561 1776.36 487.902C1777.77 490.458 1779.14 493.007 1780.52 495.563C1789.54 512.264 1798.85 529.534 1813.64 544.487C1822.62 553.585 1833.2 561.498 1843.42 569.159C1852.72 576.122 1862.33 583.324 1870.54 591.302C1881.66 602.069 1885.38 611.898 1881.62 620.504C1876.26 632.752 1855.47 642.859 1825.98 647.551C1764.23 657.36 1721.66 651.194 1687.92 627.582C1641.38 595.003 1598.46 567.225 1544.26 557.409C1491.56 547.865 1454.72 585.97 1425.11 616.576C1423.14 618.608 1421.21 620.596 1419.31 622.542C1417.46 624.483 1415.38 626.521 1413.16 628.747C1392.83 649.078 1362.1 679.813 1367.25 704.854C1369.14 714.217 1375.95 721.898 1387.47 727.741Z" fill="#EFF1F2"/>
<path d="M1783.6 0C1763.93 8.83882 1742.94 14.7012 1721.34 9.59588C1713.1 7.65827 1705.44 4.39428 1698.8 0H1696.78C1703.82 4.8964 1712.08 8.51301 1721 10.6053C1726.49 11.8986 1732.17 12.5523 1737.89 12.5465C1754.69 12.5465 1770.89 7.10471 1786.26 0.00647059L1783.6 0Z" fill="#EFF1F2"/>
<path d="M143.704 93.2153C143.096 90.9118 142.464 88.5241 141.96 86.1753C136.904 62.4865 131.68 37.9888 136.096 10.6894C136.64 7.28588 137.456 3.70118 138.424 0H137.104C136.16 3.64941 135.36 7.18882 134.8 10.5535C130.368 38.0147 135.6 62.59 140.672 86.3565C141.176 88.7247 141.816 91.1188 142.432 93.4288C143.984 99.3106 145.592 105.386 145.216 111.546C144.672 120.482 133.928 127.076 125.296 132.408C124.496 132.893 123.696 133.372 122.984 133.838C105.816 144.566 89.776 157.546 74.256 170.073C68.488 174.738 62.52 179.559 56.656 184.134C37.688 192.228 18.32 192.908 -2 192.953V193.995C18.544 193.962 38.072 193.27 57.36 185.02L57.504 184.929C63.4 180.335 69.392 175.489 75.176 170.804C90.672 158.277 106.688 145.329 123.792 134.64C124.528 134.174 125.296 133.702 126.096 133.21C134.896 127.768 145.936 120.994 146.512 111.572C146.904 105.302 145.272 99.1553 143.704 93.2153Z" fill="#EFF1F2"/>
<path d="M120.312 0C117.608 12.4882 116.312 25.3323 115.048 37.8141C112.096 66.9318 109.048 97.0135 87.92 122.262C73.24 139.797 55.92 153.541 36.432 163.091C23.712 169.329 11.328 172.312 -1.96802 174.589V175.651C11.36 173.366 24.264 170.286 37.128 164.004C56.776 154.369 74.232 140.528 89.016 122.864C110.328 97.3953 113.4 67.1582 116.36 37.9112C117.624 25.4035 118.928 12.5206 121.648 0.0194118L120.312 0Z" fill="#EFF1F2"/>
<path d="M550.448 77.99C545.464 76.01 540.752 74.1465 536.848 72.38C525.2 67.1194 512.896 61.4706 501.2 55.2718C497.426 53.1265 493.831 50.7812 490.44 48.2512C484.248 43.8706 477.856 39.3412 471.736 37.62C466.136 36.0541 460.184 31.7965 454.408 27.6618C450.624 24.97 447.064 22.4271 443.672 20.6476C432.144 14.6365 420.184 9.38235 408.976 4.60059C405.776 3.22882 402.576 1.87647 399.376 0.511176L398.12 0H395.336L398.744 1.44294L408.344 5.52588C419.544 10.2947 431.456 15.5359 442.928 21.5276C446.662 23.6392 450.21 25.9591 453.544 28.4706C459.424 32.6635 465.496 36.9988 471.304 38.6359C477.112 40.2729 483.496 44.7506 489.584 49.0665C493.025 51.6295 496.67 54.0071 500.496 56.1841C512.224 62.3959 524.568 68.0576 536.208 73.3247C540.152 75.1171 544.88 76.9871 549.88 78.9606C567.144 85.7871 588.608 94.2765 595.256 106.26C601.064 116.716 578.408 136.064 563.416 148.862C558.368 153.172 554.008 156.899 551.52 159.552C542 169.756 534.608 179.125 528.928 188.191C528.128 189.485 527.24 191.225 526.216 193.257C522.504 200.64 516.848 211.957 508.96 210.902C493.392 208.851 475.664 191.303 463.928 179.695C461.68 177.475 459.56 175.379 457.712 173.638C449.824 166.216 442.12 158.439 434.664 150.92C428.552 144.76 422.24 138.386 415.84 132.233C387.04 104.539 349.744 75.4535 291.12 69.7335C284.656 69.0865 277.896 68.6012 271.36 68.1159C227.128 64.7965 181.376 61.3735 174.136 17.7165C173.628 11.8176 173.896 5.89182 174.936 0.0388235H173.64C172.617 5.93227 172.362 11.8964 172.88 17.8329C180.264 62.3376 226.536 65.7994 271.28 69.1512C277.816 69.6365 284.56 70.1412 291 70.7753C349.192 76.4565 386.288 105.367 414.896 132.893C421.296 139.04 427.6 145.414 433.704 151.574C441.16 159.092 448.904 166.876 456.784 174.318C458.616 176.039 460.736 178.129 462.968 180.348C474.832 192.079 492.752 209.809 508.8 211.925C509.207 211.982 509.619 212.01 510.032 212.009C518.208 212.009 523.552 201.397 527.456 193.652C528.464 191.633 529.344 189.892 530.112 188.656C535.768 179.649 543.12 170.325 552.592 160.186C554.992 157.598 559.368 153.871 564.392 149.581C580.528 135.798 602.624 116.93 596.472 105.833C589.592 93.4676 567.888 84.8812 550.448 77.99Z" fill="#EFF1F2"/>
<path d="M99.992 0C97.312 10.1135 95.288 20.5765 93.32 30.7806C88.48 55.9123 83.472 81.8982 68.576 103.801C52.464 127.529 26.936 145.685 -2 154.647V155.754C27.408 146.785 53.352 128.396 69.712 104.325C84.704 82.2606 89.712 56.1841 94.592 30.9682C96.576 20.7059 98.592 10.1847 101.304 0.0258824L99.992 0Z" fill="#EFF1F2"/>
<path d="M80.152 0.000611219C78.864 3.10002 77.656 6.04414 76.624 8.72296C72.856 18.5388 69.832 29.073 66.624 40.2218C55.776 77.9259 43.6 120.062 -2 136.653V137.824C44.616 121.201 56.912 78.5924 67.872 40.4806C71.072 29.3447 74.104 18.8365 77.848 9.05296C78.912 6.29002 80.168 3.22943 81.504 -0.00585938L80.152 0.000611219Z" fill="#EFF1F2"/>
<path d="M47.28 0C38.408 16.8688 34.376 32.5147 30.12 49.0471C28.976 53.4924 27.8 58.1059 26.504 62.7971C21.464 81.0765 11.752 95.7647 -2 106.195V107.593C12.4 96.9876 22.552 81.8982 27.752 63.0235C29.056 58.3065 30.232 53.7059 31.384 49.2606C35.656 32.6506 39.704 16.9076 48.68 0H47.28Z" fill="#EFF1F2"/>
<path d="M730.6 6.82C743.68 11.5435 757.208 16.4418 772.12 17.0112C776.736 17.2635 781.56 17.3929 786.472 17.3929C800.296 17.3929 815.272 16.4159 833.672 14.3388C856.376 11.8105 878.599 6.99341 899.824 0H896.4C876.174 6.44114 855.07 10.9072 833.536 13.3035C815.208 15.3806 800.264 16.3382 786.504 16.3382C781.624 16.3382 776.824 16.2218 772.216 15.9694C757.544 15.4065 744.136 10.5535 731.16 5.86235C725.768 3.92118 720.192 1.90235 714.584 0.207059L713.8 0H709.424C711.011 0.331396 712.576 0.728787 714.112 1.19059C719.672 2.86647 725.2 4.87235 730.6 6.82Z" fill="#EFF1F2"/>
<path d="M1179.83 0C1178.33 12.0224 1169.43 23.7665 1153.08 35.5041C1125.66 55.1682 1093.95 65.4176 1060.38 76.2688C1046.08 80.8953 1031.3 85.6706 1017.03 91.2159C991.432 101.148 970.936 114.381 952.488 132.854C948.784 136.562 945.096 140.412 941.528 144.139C928.48 157.779 914.968 171.885 897.528 182.315C879.974 192.685 858.841 198.343 837.104 198.492C803.888 198.492 779.944 184.593 771.408 160.374C767.288 148.688 765.864 136.316 764.488 124.358C763.264 113.779 762.008 102.831 758.888 92.3353C753.448 73.9718 743.592 48.5941 721 40.2924C709 35.9053 695.4 33.9447 676.856 33.9447C669.528 33.9447 662.096 34.2359 654.904 34.5206C649.8 34.7212 644.504 34.9282 639.432 35.0253H639.256C633.424 35.0253 587.184 31.3759 583.632 23.6306C583.032 22.3365 583.792 20.9518 586.032 19.3988C596.512 10.1006 622.096 7.10471 640.784 4.91765C644.904 4.42588 648.784 3.97294 652.088 3.50059C655.392 3.02823 658.488 2.52353 661.816 1.99294C666.168 1.29412 670.64 0.595294 675.136 0H667.8C665.696 0.323529 663.592 0.647059 661.512 0.99C658.224 1.51412 654.984 2.03824 651.824 2.49765C648.664 2.95706 644.664 3.42294 640.544 3.88235C621.672 6.08882 595.824 9.12353 585.088 18.6547C582.504 20.46 581.608 22.2524 582.408 23.9994C586.456 32.8318 635.256 36.0671 639.208 36.0671H639.416C644.504 35.97 649.816 35.7629 654.92 35.5624C662.12 35.2776 669.504 34.9865 676.808 34.9865C695.208 34.9865 708.632 36.9276 720.424 41.2435C742.496 49.3512 752.208 74.4247 757.592 92.5876C760.68 103.012 761.936 113.941 763.144 124.455C764.528 136.465 765.96 148.888 770.112 160.691C778.816 185.395 803.216 199.566 837.048 199.566C859.06 199.413 880.459 193.681 898.232 183.176C915.832 172.655 929.432 158.491 942.52 144.792C946.088 141.072 949.768 137.228 953.464 133.527C971.792 115.176 992.144 102.035 1017.55 92.1671C1031.79 86.6412 1046.55 81.8659 1060.83 77.2523C1093.02 66.8412 1126.32 56.0806 1153.91 36.2935C1170.62 24.3229 1179.63 12.3524 1181.11 0.00647059L1179.83 0Z" fill="#EFF1F2"/>
<path d="M1158.22 -0.000730675C1157.54 8.61162 1152.62 16.9975 1143.34 25.0146C1116.06 48.7487 1079.1 59.8522 1043.34 70.5869C1039.34 71.8034 1035.26 73.0134 1031.25 74.2493C989.112 87.1193 959.376 105.062 931.816 134.258C913.784 153.352 883.6 185.323 847.208 185.323C841.078 185.292 834.999 184.417 829.232 182.735C793.512 172.557 789.64 138.858 786.224 109.126C785.376 101.743 784.576 94.774 783.32 88.601C781.808 73.4728 779.912 54.6434 797.048 42.8993C809.528 34.3387 828.512 30.3269 845.248 26.794C849.408 25.914 853.336 25.0793 857.088 24.2057C882.472 18.2267 907.011 10.1136 930.304 -0.000730675H927.504C904.945 9.66651 881.228 17.4519 856.72 23.2352C852.976 24.1087 849.056 24.9369 844.904 25.8234C828.032 29.3887 808.904 33.4328 796.192 42.1487C778.592 54.2422 780.48 73.3628 782.024 88.7757C783.28 94.9551 784.088 101.911 784.928 109.275C788.208 137.829 792.288 173.366 828.8 183.764C834.707 185.466 840.93 186.341 847.2 186.352C884.216 186.352 914.648 154.129 932.8 134.879C960.2 105.852 989.776 88.0057 1031.65 75.2069C1035.65 73.9775 1039.73 72.761 1043.76 71.5575C1079.65 60.7775 1116.78 49.6287 1144.27 25.7199C1153.73 17.4893 1158.82 8.86397 1159.47 -0.0136719L1158.22 -0.000730675Z" fill="#EFF1F2"/>
<path d="M1592.58 -0.000119535H1590.67C1602.62 8.79341 1611.89 19.2564 1611.56 33.2134C1610.69 69.4487 1577.34 101.983 1522.36 120.198C1511.82 123.692 1500.5 126.791 1489.56 129.787C1453.98 139.493 1417.2 149.593 1395.11 175.676C1388.1 183.946 1381.61 192.836 1375.34 201.429C1356.05 227.894 1336.08 255.258 1298.18 267.953C1287.23 271.629 1278.34 273.337 1270.18 273.337C1258.11 273.337 1247.05 269.455 1235.38 261.127C1213.84 245.753 1200.47 229.305 1195.64 212.261C1191.7 193.263 1203.41 176.388 1231.39 160.665C1238.22 156.834 1245.79 153.223 1252.99 149.736C1281.55 136.044 1311.09 121.912 1308.01 90.1481C1307.3 82.9852 1305.5 75.7834 1303.78 68.7952C1300.93 57.4393 1297.99 45.6952 1299.78 33.9575C1301.87 20.4664 1311.78 9.44047 1323.84 -0.0195312H1322C1310.14 9.40812 1300.58 20.3952 1298.51 33.8281C1296.67 45.734 1299.62 57.5558 1302.51 68.9958C1304.25 75.9387 1306.05 83.1146 1306.74 90.1999C1309.75 121.31 1280.56 135.293 1252.34 148.817C1245.04 152.318 1237.47 155.935 1230.62 159.817C1202.18 175.786 1190.3 192.998 1194.34 212.468C1199.24 229.764 1212.74 246.4 1234.49 261.923C1246.4 270.425 1257.69 274.385 1270.14 274.385C1278.49 274.385 1287.55 272.651 1298.66 268.93C1336.94 256.099 1357.02 228.58 1376.43 201.973C1382.68 193.386 1389.16 184.502 1396.14 176.272C1418.01 150.48 1454.54 140.463 1489.94 130.777C1500.9 127.781 1512.22 124.682 1522.8 121.175C1578.27 102.798 1611.93 69.9275 1612.8 33.2458C1613.2 19.2758 1604.25 8.79341 1592.58 -0.000119535Z" fill="#EFF1F2"/>
<path d="M472.936 68.5882C470.624 67.54 468.472 66.5565 466.536 65.6506C449.552 57.7112 431.84 50.0177 412.36 42.1106C404.72 39.0047 396.552 35.64 388.576 31.7577C384.594 29.714 380.792 27.4481 377.2 24.9765C372.168 21.7024 366.968 18.3118 361.28 16.1247C353.792 10.9482 346.216 5.40941 338.88 0H329.28L333.44 3.05412C341.28 8.81941 349.44 14.7918 357.44 20.3371L357.776 20.57L358.176 20.7124C363.344 22.6471 368.4 25.8824 373.2 29.0465C377.021 31.6581 381.054 34.0598 385.272 36.2353C393.432 40.1759 401.728 43.6312 409.48 46.7759C428.832 54.6312 446.448 62.3053 463.32 70.1735C465.28 71.0859 467.456 72.0759 469.792 73.1371C493.96 84.1371 534.432 102.539 525.328 124.986C520.344 137.241 509.2 146.41 495.6 149.471C493.78 149.897 491.895 150.114 490 150.118C479.44 150.118 466.984 144.074 453 132.142C443.248 123.834 434.368 114.581 425.8 105.613C412.496 91.7788 398.744 77.4659 381.312 66.0324C359.328 51.6159 327.792 50.3929 297.312 49.2088C256.72 47.6365 218.376 46.1612 204.2 15.0118C203.255 10.0438 203.115 4.99727 203.784 0H197.344C196.659 5.3663 196.834 10.7817 197.864 16.1118L198.024 16.5841C213.576 51.2147 255.968 52.8518 296.968 54.4371C326.44 55.5824 356.896 56.7535 377.248 70.1024C394.112 81.1541 407.648 95.2277 420.704 108.835C429.4 117.894 438.384 127.238 448.344 135.734C463.6 148.733 477.608 155.333 490 155.333C492.476 155.335 494.941 155.065 497.328 154.531C513.032 150.965 525.784 140.528 531.432 126.591C542.192 100.074 498.8 80.3518 472.936 68.5882Z" fill="#EFF1F2"/>
<path d="M1131.05 0C1130.5 8.52824 1125.5 17.0047 1116.3 24.5882C1093.1 43.6894 1061.44 51.9394 1030.8 59.9241C1026.25 61.1018 1021.73 62.2923 1017.25 63.4959C977.888 74.1141 951.736 87.9353 929.8 109.709C927.192 112.297 924.2 115.584 920.936 119.072C905.368 135.96 881.832 161.467 857.304 161.461C852.136 161.434 847.065 160.319 842.592 158.225C821.112 148.442 817.792 129.308 814.592 110.802C814.048 107.703 813.496 104.487 812.872 101.491C809.912 65.7735 831.2 51.6676 868.936 39.2765C906.976 26.8335 937.384 14.5329 965.976 0.00647059H963.576C935.576 14.1253 905.68 26.1412 868.488 38.3124C830.192 50.8394 808.6 65.2106 811.608 101.614C812.24 104.649 812.776 107.709 813.344 110.951C816.608 129.716 819.984 149.128 842.032 159.138C846.696 161.316 851.981 162.476 857.368 162.502C882.536 162.502 906.296 136.749 922.024 119.699C925.376 116.076 928.264 112.938 930.824 110.369C952.584 88.7571 978.568 75.0394 1017.68 64.4859C1022.15 63.2759 1026.68 62.1047 1031.21 60.9206C1062.01 52.8971 1093.86 44.6082 1117.24 25.3324C1126.54 17.6712 1131.7 8.82588 1132.29 0.0194118L1131.05 0Z" fill="#EFF1F2"/>
<path d="M1551 -0.00023897C1570.1 14.0992 1577.58 28.3474 1577.4 49.6421C1573.01 69.0539 1556.9 83.108 1544.14 91.5068C1519.1 107.974 1487.88 115.131 1457.68 122.048C1438.91 126.351 1419.53 130.803 1401.58 137.442C1376.78 146.63 1370.55 161.441 1363.37 178.588C1362.24 181.273 1361.09 184.036 1359.82 186.883C1353.42 201.229 1343.68 219.34 1324.91 232.262C1311.07 241.78 1294.35 247.027 1277.86 247.027C1251.46 247.027 1229.78 234.138 1219.88 212.526C1219.27 193.606 1226.18 182.535 1245.24 171.762C1256.82 165.233 1269.98 160.302 1282.7 155.54C1286.45 154.136 1290.18 152.738 1293.9 151.302L1296.09 150.454C1314.74 143.233 1334.04 135.753 1337.81 116.567L1337.87 116.276V115.979C1336.89 104.273 1333.15 92.9368 1329.53 81.9756C1326.91 74.0686 1324.23 65.8962 1322.63 57.7433C1317.83 32.8768 1331.54 13.8468 1349.66 -0.0131801H1340.65L1339.5 0.963879C1319.99 18.1821 1312.2 37.5551 1316.3 58.5521C1317.9 66.9639 1320.69 75.2851 1323.34 83.3215C1326.85 93.9398 1330.47 104.933 1331.46 116.03C1328.08 132.297 1311.21 138.833 1293.36 145.737L1291.18 146.591C1287.5 148.014 1283.8 149.406 1280.08 150.797C1267.1 155.656 1253.68 160.677 1241.68 167.478C1220.66 179.339 1212.79 192.118 1213.58 213.083V213.503L1213.76 213.898C1224.54 237.897 1248.53 252.223 1277.94 252.223C1295.96 252.223 1314.15 246.536 1329.14 236.222C1349.06 222.504 1359.26 203.59 1365.94 188.637C1367.22 185.757 1368.39 182.956 1369.54 180.225C1376.78 162.916 1382.03 150.402 1404.33 142.152C1421.82 135.682 1440.97 131.282 1459.53 127.037C1490.35 119.971 1522.23 112.666 1548.33 95.5186C1561.99 86.5309 1579.26 71.3962 1583.93 50.3086L1583.98 49.8751C1584.22 29.0009 1577.26 13.9503 1560.41 -0.0390625L1551 -0.00023897Z" fill="#EFF1F2"/>
<path d="M1918 27.0018C1896.06 37.1412 1873.94 45.8765 1847.1 49.5776C1828.38 51.4671 1809.02 53.4276 1790.54 48.8853C1785.54 47.6559 1782.49 45.7729 1781.42 43.2818C1779.28 38.2347 1785.56 30.9876 1789.74 26.1671C1797.67 16.9918 1808.06 8.13353 1820.23 0H1818.22C1806.46 7.97176 1796.42 16.6165 1788.67 25.5653C1782.97 32.1588 1778.03 38.5065 1780.2 43.6247C1781.41 46.4524 1784.77 48.5553 1790.17 49.8818C1798.57 51.8544 1807.3 52.8073 1816.05 52.7094C1826.5 52.7094 1836.98 51.6482 1847.25 50.6065C1874.06 46.9182 1896.14 38.2671 1917.97 28.1988L1918 27.0018Z" fill="#EFF1F2"/>
<path d="M1526.64 0H1524.62C1540.97 10.3529 1552.56 23.9865 1553.42 40.3441C1555.53 79.1676 1502.06 101.543 1451.33 109.508C1437.1 111.747 1426.22 112.744 1416.08 112.744C1401.08 112.744 1388.39 110.44 1377.44 105.781C1357.22 91.2741 1345.39 74.3859 1341.26 54.1459C1338.75 39.3476 1343.98 24.9247 1356.41 12.4171C1361.06 7.80525 1366.36 3.63917 1372.18 0H1370.11C1364.71 3.48019 1359.8 7.4197 1355.44 11.7506C1342.78 24.4847 1337.46 39.1988 1340.02 54.3012C1344.2 74.8 1356.17 91.8888 1376.75 106.629C1388.02 111.443 1400.89 113.779 1416.11 113.779C1426.33 113.779 1437.28 112.782 1451.59 110.544C1502.86 102.501 1556.89 79.8277 1554.74 40.3182C1553.86 24.0447 1542.61 10.3982 1526.64 0Z" fill="#EFF1F2"/>
<path d="M1105.14 -0.000119537C1105.22 2.81375 1104.72 5.61859 1103.67 8.30164C1083.41 35.6463 1046.94 42.2787 1011.67 48.6975C992.248 52.2369 972.16 55.8993 954.808 62.9328C937.144 70.1022 924.744 82.5322 912.76 94.5546C907.272 100.048 901.608 105.729 895.52 110.815C885.664 119.065 874.96 123.795 866.168 123.795C855.328 123.795 847.768 116.982 844.312 104.125C840.368 83.244 854.52 65.5663 882.176 56.8181L889.888 54.4046C915.24 46.4781 939.184 38.9852 960.288 24.4652C972.512 16.0534 984.96 7.50576 998.37 -0.0195312H996.12C983.24 7.31812 971.248 15.5552 959.456 23.6693C938.512 38.0728 914.656 45.5334 889.424 53.434L881.712 55.8605C853.456 64.7899 838.992 82.8946 843.04 104.319C847.6 121.285 858.128 124.843 866.16 124.843C875.432 124.843 886.16 120.12 896.44 111.546C902.56 106.428 908.248 100.728 913.752 95.2146C925.648 83.2828 937.96 70.9434 955.352 63.8646C972.56 56.8699 992.576 53.2334 1011.92 49.7069C1047.46 43.2363 1084.18 36.5458 1104.8 8.71576C1105.92 5.8959 1106.46 2.94757 1106.4 -0.0130608L1105.14 -0.000119537Z" fill="#EFF1F2"/>
<path d="M1495.97 0H1492.98C1508.98 6.05 1522.66 15.9629 1529.25 30.9359C1534.59 43.0941 1532.64 55.0129 1523.65 65.4047C1508.18 83.1924 1473.74 95.1694 1437.94 95.1694C1399.22 95.1694 1371.2 81.0765 1362.99 57.4912C1358.06 42.46 1361.04 28.6194 1371.58 17.4771C1378.43 10.2624 1388.34 4.33529 1400.14 0.00647059H1397.06C1386.18 4.29 1377.06 9.99059 1370.58 16.83C1359.76 28.2376 1356.71 42.3888 1361.78 57.7565C1370.14 81.8271 1398.62 96.1982 1437.96 96.2047C1474.15 96.2047 1509.02 84.0724 1524.71 66.0259C1533.99 55.3429 1536.01 43.0941 1530.53 30.6124C1524.08 16.0665 1511.22 6.22471 1495.97 0Z" fill="#EFF1F2"/>
<path d="M273.92 0H271.368C274.568 1.35882 277.328 3.13824 278.92 5.33824C280.848 7.99765 280.792 10.8706 278.744 13.8794C275.472 18.6676 268.792 19.3794 265.096 19.3794C256.672 19.3794 246.472 15.6653 243.944 9.38882C241.832 5.82353 241.616 2.86647 243.296 0.711765C243.505 0.46203 243.735 0.224213 243.984 0H242.384C242.336 0.0582353 242.28 0.103529 242.232 0.155294C240.304 2.63353 240.496 5.88824 242.776 9.77706C245.448 16.4418 256.232 20.4212 265.12 20.4212C271.88 20.4212 277.264 18.2212 279.888 14.3841C282.152 11.0776 282.2 7.76471 280.056 4.80765C278.517 2.83005 276.413 1.18107 273.92 0Z" fill="#EFF1F2"/>
<path d="M1441.74 75.5057C1415.77 75.5057 1396.51 66.3434 1390.23 51.0016V50.8528C1389.64 36.9604 1391.83 27.7463 1405.28 18.8816C1414.42 12.8251 1426.67 9.001 1439.78 8.09512C1441.77 7.95924 1443.78 7.89453 1445.82 7.89453C1464.64 7.89453 1488.62 14.1128 1499.47 31.5769C1504.59 39.8269 1504.42 47.9798 1498.98 55.1492C1489.84 67.1328 1466.33 75.5057 1441.74 75.5057ZM1391.49 50.7428C1397.61 65.6251 1416.38 74.4639 1441.74 74.4639C1465.9 74.4639 1488.98 66.2981 1497.86 54.5992C1503.05 47.7598 1503.2 39.9628 1498.28 32.0492C1487.7 15.0057 1464.23 8.9363 1445.78 8.9363C1443.82 8.9363 1441.78 9.00747 1439.86 9.13688C1427.06 10.0234 1415 13.7698 1406.06 19.6904C1393.1 28.2639 1390.92 37.2257 1391.49 50.7428Z" fill="#EFF1F2"/>
<path d="M1918 217.515C1912.83 219.394 1907.84 221.59 1903.08 224.083C1900.05 225.746 1897.05 227.435 1894.03 229.13C1884.06 234.753 1873.74 240.576 1862.75 245.158C1845.53 252.333 1827.18 252.366 1809.46 252.398C1794.14 252.398 1778.31 252.45 1763.44 257.044C1744.69 259.134 1731.23 268.238 1718.22 277.045C1709.11 283.211 1699.69 289.585 1688.62 293.532C1677.7 295.175 1666.66 292.885 1656.73 286.841C1643.34 278.74 1633.53 264.841 1631.79 251.486C1628.42 225.869 1650.27 203.94 1669.55 184.586L1671.54 182.606C1685.38 168.682 1695.84 157.934 1705.43 147.756C1708.17 144.851 1710.91 141.628 1713.82 138.205C1721.29 129.418 1729.02 120.333 1738.18 114.795L1738.32 114.685C1757.14 94.0305 1786.48 80.0411 1828.04 71.914C1863.58 64.9646 1892.84 57.1093 1918.01 47.6817V46.5234C1892.78 56.0158 1863.46 63.9164 1827.74 70.8981C1785.91 79.077 1756.35 93.1764 1737.34 113.999C1728.05 119.648 1720.28 128.778 1712.77 137.616C1709.87 141.02 1707.17 144.236 1704.42 147.115C1694.82 157.3 1684.38 168.041 1670.53 181.946L1668.56 183.933C1649.13 203.435 1627.1 225.545 1630.52 251.596C1632.31 265.249 1642.3 279.419 1655.97 287.676C1664.03 292.561 1672.82 295.078 1681.77 295.078C1684.18 295.072 1686.59 294.888 1688.97 294.528C1700.34 290.484 1709.84 284.052 1719.03 277.84C1732.5 268.73 1745.22 260.124 1763.74 258.047C1778.53 253.518 1794.25 253.466 1809.44 253.44C1827.33 253.408 1845.82 253.375 1863.31 246.083C1874.38 241.463 1884.74 235.633 1894.77 229.984C1897.75 228.295 1900.75 226.606 1903.78 224.943C1908.32 222.567 1913.06 220.469 1917.98 218.667L1918 217.515Z" fill="#EFF1F2"/>
<path d="M749.312 727.385C738.704 727.385 728.24 722.927 719.056 714.444L718.96 714.328C706.704 694.618 708.048 672.133 710.688 648.916C713.088 627.725 715.296 603.195 711.032 580.244C707.832 563.052 697.168 547.6 686.832 532.646C684.744 529.618 682.648 526.59 680.632 523.588C660.632 493.661 675.264 464.569 689.432 436.435C695.96 423.423 702.72 409.958 706.064 396.505C718.264 347.387 677.72 308.363 635.704 288.233C625.2 283.205 616.112 279.853 606 279.853C601.983 279.863 597.992 280.385 594.176 281.4C590.848 282.267 587.48 283.218 584.208 284.131C575.752 286.505 567.008 288.958 558.008 290.284C554.481 290.82 550.901 291.099 547.312 291.119C525.368 291.119 511.92 279.556 508.44 257.692C508.648 255.647 508.792 253.615 508.92 251.661C509.504 242.997 510.104 234.035 517.512 227.209L517.624 227.105L517.8 227.06C518.673 226.83 519.586 226.716 520.504 226.723C528.696 226.723 541.304 234.488 550.544 240.189C553.816 242.208 556.64 243.942 558.656 244.964C574.576 253.026 591.04 261.361 608.504 261.361C616.712 261.361 624.736 259.594 633.024 255.964C642.856 251.668 652.28 246.504 661.392 241.515C671.224 236.125 681.392 230.561 692.16 226.031C705.79 220.158 721.021 217.139 736.464 217.251C748.808 217.251 761.464 218.907 773.264 220.693C791.344 223.43 806.304 224.705 820.352 224.705C832.414 224.752 844.443 223.69 856.208 221.541C900.888 213.271 928.024 189.446 956.752 164.231C969.28 153.231 982.24 141.849 996.816 131.819C1021.49 114.834 1052.16 105.025 1081.83 95.5388C1102.21 89.0229 1123.29 82.2805 1142.18 73.2799L1147.6 70.5299C1169.58 59.0511 1199.99 43.1723 1225.73 44.4341C1247.02 49.8046 1260.7 66.2982 1260.68 86.4929C1260.68 111.521 1235.2 124.986 1212.73 136.86C1190.4 148.656 1173.63 159.785 1159.06 178.77C1149.62 197.282 1155.32 216.713 1160.84 235.511C1162.27 240.402 1163.76 245.475 1164.93 250.393C1171.33 277.213 1144.5 286.479 1120.84 294.652C1112.32 297.596 1103.34 300.326 1093.84 303.212C1052.94 315.629 1006.64 329.709 991.88 365.272C984.792 382.373 990.792 399.812 996.584 416.687C998.32 421.728 1000.12 426.943 1001.51 432.016C1007.71 454.734 1003.91 473.686 989.912 489.973C974.792 507.566 952.408 518.819 930.76 529.696C906.384 541.99 881.16 554.633 866.464 576.401C858.256 588.546 851.952 601.636 845.856 614.331C841.312 623.746 836.616 633.484 831.184 642.802C817.48 666.206 802.936 687.565 787.984 706.291C777.048 719.879 763.32 727.385 749.312 727.385ZM720.072 713.836C729.128 722.144 738.96 726.35 749.312 726.35C762.912 726.35 776.208 719.006 786.864 705.644C801.792 686.951 816.296 665.643 829.976 642.265C835.4 632.999 840.088 623.28 844.608 613.878C850.728 601.176 857.056 588.048 865.296 575.838C880.168 553.838 905.52 541.071 930.048 528.745C951.576 517.913 973.84 506.745 988.832 489.274C1002.61 473.246 1006.33 454.559 1000.2 432.145C998.83 427.098 997.048 421.896 995.312 416.868C989.472 399.851 983.408 382.251 990.624 364.851C1005.54 328.81 1052.22 314.639 1093.34 302.138C1102.84 299.259 1111.8 296.535 1120.3 293.597C1143.5 285.58 1169.82 276.482 1163.62 250.496C1162.46 245.592 1160.98 240.545 1159.54 235.653C1153.94 216.701 1148.23 197.101 1157.87 178.201C1172.62 158.97 1189.5 147.789 1211.98 135.883C1235.26 123.589 1259.34 110.868 1259.36 86.3958C1259.36 66.6735 1246.06 50.5682 1225.46 45.3658C1224.66 45.3658 1223.7 45.3205 1222.74 45.3205C1198.06 45.3205 1169.28 60.3452 1148.26 71.3129L1142.89 74.1146C1123.89 83.1735 1102.77 89.9158 1082.34 96.4511C1052.74 105.905 1022.2 115.688 997.688 132.557C983.168 142.548 970.232 153.91 957.736 164.91C928.864 190.249 901.608 214.183 856.536 222.537C844.676 224.703 832.55 225.771 820.392 225.721C806.264 225.721 791.224 224.426 773.072 221.702C761.288 219.916 748.696 218.266 736.464 218.266C721.228 218.158 706.2 221.137 692.752 226.931C682.064 231.46 671.952 236.986 662.112 242.356C652.968 247.358 643.52 252.528 633.64 256.857C625.152 260.565 616.928 262.376 608.504 262.376C590.672 262.376 574.056 253.965 557.976 245.825C555.904 244.776 553.064 243.029 549.768 240.998C540.688 235.433 528.256 227.765 520.504 227.765C519.779 227.761 519.057 227.841 518.36 228.005C511.352 234.553 510.8 243.295 510.2 251.706C510.072 253.68 509.936 255.718 509.72 257.659C512.12 272.386 520.52 290.064 547.32 290.064C550.831 290.04 554.333 289.763 557.784 289.236C566.68 287.942 575.384 285.483 583.792 283.121C587.064 282.202 590.448 281.258 593.792 280.384C597.734 279.344 601.854 278.814 606 278.812C616.4 278.812 625.64 282.215 636.328 287.333C678.728 307.651 719.632 347.051 707.288 396.686C703.92 410.236 697.144 423.74 690.584 436.804C675.928 465.993 662.088 493.57 681.784 523.063C683.8 526.092 685.88 529.107 687.976 532.122C698.376 547.153 709.096 562.702 712.32 580.076C716.6 603.143 714.392 627.745 711.984 648.994C709.352 672.081 708.008 694.379 720.072 713.836Z" fill="#EFF1F2"/>
<path d="M1918 190.547C1908.83 193.135 1899.54 196.707 1890.89 200.065C1885.2 202.271 1879.84 204.342 1874.89 205.986C1850.09 214.242 1827.8 218.409 1802.62 219.503C1801.15 219.567 1799.25 219.664 1796.98 219.794C1776.34 220.939 1721.5 223.98 1710.14 209.57C1706.94 205.455 1707.46 200.117 1711.82 193.627C1729.53 155.411 1759.82 123.285 1794.97 105.491C1821.56 92.0256 1852.5 83.5944 1882.41 75.435C1894.18 72.1997 1906.2 68.9644 1917.98 65.3538V64.2344C1906.08 67.8773 1893.92 71.1967 1881.98 74.445C1852 82.6238 1820.98 91.0744 1794.26 104.604C1758.9 122.521 1728.41 154.836 1710.66 193.187C1706.08 199.974 1705.53 205.668 1709.06 210.133C1716.65 219.761 1741.55 221.949 1764.42 221.949C1777.01 221.949 1788.96 221.301 1797.07 220.836C1799.32 220.706 1801.22 220.603 1802.67 220.538C1828 219.444 1850.42 215.258 1875.36 206.95C1880.33 205.3 1885.7 203.216 1891.41 201.003C1899.89 197.723 1909.01 194.216 1917.97 191.66L1918 190.547Z" fill="#EFF1F2"/>
<path d="M1918 172.214C1908.18 174.045 1898.49 176.187 1888.97 178.303C1870.83 182.334 1852.08 186.501 1833.11 188.261C1820.94 189.387 1782.5 189.064 1772.87 178.051C1769.86 174.595 1769.84 170.286 1772.87 165.168C1785.03 119.356 1851.97 100.371 1905.75 85.1136C1909.92 83.936 1914 82.7735 1917.98 81.626V80.5195C1913.86 81.7101 1909.64 82.9137 1905.33 84.1301C1851.25 99.4719 1783.94 118.56 1771.67 164.831C1768.47 170.221 1768.47 174.867 1771.82 178.652C1779.9 187.925 1805.49 189.698 1821.36 189.698C1826.86 189.698 1831.2 189.484 1833.23 189.297C1852.3 187.53 1871.11 183.35 1889.3 179.312C1898.7 177.222 1908.3 175.107 1917.98 173.288L1918 172.214Z" fill="#EFF1F2"/>
<path d="M769.344 642.988C751.424 642.988 749.856 619.545 748.824 604.042C748.672 601.842 748.536 599.816 748.368 598.076C747.568 579.596 741.344 559.796 731.296 543.723C728.84 539.795 726.184 535.867 723.376 531.72C712.008 514.896 700.248 497.549 701.24 478.752C702.112 462.2 708.232 446.243 714.168 430.811C716.312 425.22 718.528 419.442 720.464 413.735C729.096 388.209 729.008 364.559 720.208 343.4C715.92 333.086 710.056 323.089 704.384 313.428C698.712 303.767 692.864 293.764 688.56 283.469L688.512 283.359V283.236C688.72 281.897 688.888 280.603 689.056 279.354C690.392 269.383 691.352 262.181 702.496 254.054C712.184 246.988 725.264 242.265 741.376 240.026C754.464 238.201 767.568 237.942 779.776 237.942C783.088 237.942 786.4 237.942 789.712 237.987C793.024 238.033 796.336 238.026 799.648 238.026C809.688 238.026 821.512 237.858 833.104 236.57C901.104 229.019 943.8 194.253 989.016 157.442C1019.9 132.297 1061.77 119.22 1102.25 106.576C1123.85 99.8404 1146.1 92.8781 1166.25 84.2075C1176.33 79.6781 1188.3 76.9863 1198.25 76.9863C1207.59 76.9863 1214.58 79.264 1218.46 83.5669C1222.69 88.2387 1223.1 95.0199 1219.72 103.723L1219.62 103.872C1209.95 114.755 1196.15 122.255 1182.82 129.508C1172.72 134.995 1162.26 140.67 1153.72 147.775C1135.72 163.142 1128.12 185.407 1132.36 210.462C1132.95 213.93 1133.75 217.508 1134.59 221.306C1138.59 239.197 1143.1 259.483 1125.61 273.149C1107.94 285.203 1086.41 293.065 1065.5 300.668C1037.97 310.704 1009.5 321.076 990 341.148C972.728 358.929 968.456 379.247 976.576 405.09C977.592 408.326 978.752 411.697 979.856 414.939C985.56 431.51 991.44 448.644 985.152 465.655C974.392 494.812 940.496 508.73 907.728 522.189C890.592 529.222 872.88 536.502 859.296 545.787C840.608 558.553 830.112 576.134 819.952 593.132C809.792 610.13 799.328 627.685 780.68 640.4C776.464 642.14 772.672 642.988 769.344 642.988ZM689.832 283.223C694.112 293.447 699.92 303.353 705.536 312.936C711.232 322.642 717.112 332.652 721.432 343.031C730.312 364.384 730.408 388.241 721.704 413.968C719.768 419.695 717.544 425.486 715.4 431.083C709.496 446.45 703.4 462.342 702.52 478.758C701.544 497.264 713.216 514.502 724.504 531.17C727.32 535.33 729.984 539.265 732.448 543.212C742.917 560.277 748.782 578.947 749.656 597.985C749.824 599.719 749.96 601.751 750.104 603.951C751.12 619.079 752.64 641.914 769.304 641.914C772.432 641.914 776.024 641.105 779.992 639.513C798.296 626.999 808.72 609.535 818.8 592.653C829.016 575.552 839.6 557.88 858.472 544.959C872.176 535.596 889.952 528.29 907.144 521.237C939.68 507.869 973.32 494.061 983.944 465.332C990.136 448.605 984.288 431.62 978.648 415.191C977.536 411.956 976.384 408.585 975.352 405.323C967.136 379.137 971.48 358.528 989.024 340.475C1008.71 320.203 1037.32 309.772 1065.02 299.71C1085.82 292.133 1107.3 284.304 1124.81 272.366C1141.76 259.107 1137.3 239.12 1133.38 221.481C1132.54 217.683 1131.73 214.085 1131.15 210.604C1126.86 185.22 1134.57 162.65 1152.84 147.05C1161.5 139.861 1172.04 134.147 1182.17 128.628C1195.38 121.452 1209.06 114.018 1218.58 103.328C1221.78 94.994 1221.45 88.5557 1217.51 84.1816C1212.91 79.0957 1204.54 78.0281 1198.31 78.0281C1188.56 78.0281 1176.82 80.681 1166.9 85.1457C1146.67 93.8551 1124.34 100.83 1102.75 107.573C1062.39 120.177 1020.66 133.222 989.952 158.199C944.576 195.139 901.72 230.022 833.312 237.632C821.64 238.926 809.76 239.094 799.712 239.094C796.392 239.094 793.08 239.094 789.768 239.055C786.456 239.016 783.144 239.023 779.84 239.023C767.672 239.023 754.632 239.269 741.64 241.08C725.776 243.293 712.912 247.926 703.416 254.85C692.624 262.712 691.688 269.732 690.384 279.49C690.184 280.687 690 281.942 689.832 283.243V283.223Z" fill="#EFF1F2"/>
<path d="M19.736 406.354C25.336 381.377 30.608 357.824 39.056 333.825C47.272 310.479 55.768 286.35 61.544 261.917C62.696 259.445 63.76 257.019 64.8 254.644C71.4 239.613 76.608 227.739 95.048 219.703C100.192 217.458 105.72 215.555 111.576 213.536C125.832 208.625 140.576 203.546 150.136 193.174C162.936 179.314 162.936 164.011 163.032 149.212C163.032 141.668 163.088 133.877 164.824 126.358C176.984 111.476 210.216 104.015 237.448 102.016H237.688C269.2 97.7064 299.6 100.405 323.184 109.651C372.304 128.908 403.856 166.909 423.328 193.821C437.248 213.064 445.672 231.001 449.832 250.276C451.168 256.469 452.128 262.952 453.032 269.222C455.176 283.833 457.392 298.935 464.656 312.75C484.952 351.366 524.544 345.103 562.832 339.001C571.288 337.662 580.024 336.277 588.352 335.423C614.168 332.783 638.504 338.535 653.448 350.823C665.84 361.014 670.912 374.939 668.128 391.096C661.408 429.965 619.928 464.861 583.328 484.589C581.552 485.541 578.656 486.874 575.328 488.407C559.624 495.628 535.896 506.525 534.8 518.819C534.392 523.4 537.12 527.567 542.896 531.216C554.328 538.418 569.16 540.825 583.504 543.155C593.624 544.792 603.184 546.345 611.6 549.431C657.344 566.255 673.912 599.844 662.256 652.178C659.584 664.161 654.32 675.802 649.224 687.035C644.52 697.388 639.624 708.155 636.768 719.271C631.536 739.33 639.12 756.619 660.6 773.669C682.08 790.719 708.008 804.133 732.96 817.022C756.16 829 780.16 841.384 800.512 856.752C816.512 868.826 833.608 884.459 823.712 898.345L823.496 898.701C816.6 912.968 810.232 928.135 802.832 947.877C796.064 965.949 785.448 971.068 764.2 975.701C741.128 980.767 718.696 986.358 698.088 998.995C671.88 1015.03 657.032 1037.31 642.664 1058.85C635.184 1070.05 627.464 1081.66 618.2 1092.29C615.92 1094.88 613.456 1097.46 610.84 1100.05H619.096C620.6 1098.49 622.072 1096.91 623.456 1095.32C632.936 1084.43 640.76 1072.67 648.32 1061.36C663.008 1039.36 676.872 1018.52 701.92 1003.17C721.64 991.101 742.536 985.879 765.84 980.774C788.488 975.811 801.384 969.592 808.952 949.398C816.264 929.895 822.552 914.897 829.36 900.804C842.808 881.592 816.224 861.54 804.856 852.96C784.056 837.275 759.816 824.761 736.376 812.655C711.696 799.901 686.176 786.721 665.064 769.949C645.064 754.051 638.224 738.761 643.016 720.371C645.816 709.617 650.6 699.064 655.224 688.853C660.416 677.394 665.768 665.559 668.544 653.116C680.8 598.116 663.04 562.625 614.216 544.695C605.2 541.317 594.8 539.648 584.8 538.004C570.552 535.701 557.112 533.514 546.872 527.069C542.832 524.526 541 521.944 541.272 519.168C542.128 509.689 565.832 498.799 578.552 492.956C582.016 491.364 585 489.992 586.968 488.938C624.704 468.594 667.528 432.404 674.536 391.821C677.624 374.001 671.928 358.555 658.072 347.173C641.704 333.721 615.36 327.412 587.6 330.246C579.048 331.12 570.2 332.524 561.648 333.883C524.224 339.823 488.848 345.433 470.616 310.705C463.72 297.576 461.552 282.882 459.472 268.614C458.536 262.266 457.568 255.712 456.2 249.371C451.896 229.467 443.224 210.974 428.904 191.181C408.984 163.706 376.68 124.831 326 104.96C301.2 95.2541 269.544 92.3617 236.752 96.8394C222.528 97.8941 175.552 102.941 159.072 124.016L158.744 124.436L158.624 124.915C156.664 133.075 156.632 141.292 156.6 149.245C156.544 163.829 156.496 177.618 144.992 190.1C136.48 199.34 122.536 204.141 109.072 208.781C103.336 210.754 97.416 212.799 92.016 215.148C71.384 224.103 65.52 237.471 58.736 252.904C57.68 255.311 56.6 257.776 55.432 260.293L55.28 260.72C49.552 285.004 41.072 309.101 32.88 332.395C24.344 356.608 18.8 381.429 13.408 405.422C12.608 409 11.808 412.585 10.968 416.273C8.768 428.813 4.4 439.179 -2 447.332V456.177C7.928 446.672 14.424 433.627 17.32 417.146C18.136 413.527 18.9413 409.93 19.736 406.354Z" fill="#EFF1F2"/>
<path d="M1520.82 406.353C1484.82 406.353 1443.38 399.753 1407.1 388.235C1367.58 375.715 1321.5 348.875 1310.5 311.093C1308.1 292.865 1325.23 277.951 1340.36 264.79C1343.64 261.923 1346.76 259.218 1349.59 256.54C1368.31 238.939 1383.99 220.22 1395.61 205.875C1406.95 191.827 1422.95 174.279 1446.01 163.13C1465.4 153.774 1485.76 148.545 1507.3 143.013L1510.04 142.314C1534.63 135.999 1563.52 128.131 1591.38 117.635C1592.98 117.04 1595.71 115.694 1599.22 114.005C1609.99 108.79 1628.02 100.074 1638.81 100.074C1644.76 100.074 1647.91 102.662 1648.19 107.703C1648.94 121.757 1636.99 137.759 1627.39 150.616C1625.62 152.965 1623.95 155.21 1622.44 157.326C1621.03 159.28 1619.62 161.236 1618.2 163.195C1608.47 176.673 1598.41 190.611 1591.86 205.545C1576.78 239.923 1589.72 269.371 1603.44 300.546C1606.38 307.25 1609.42 314.186 1612.24 321.187C1620.24 341.337 1618.24 361.745 1606.87 377.184C1596.47 391.277 1579.22 400.478 1556.94 403.829C1545.02 405.561 1532.93 406.405 1520.82 406.353ZM1638.8 101.161C1628.4 101.161 1610.53 109.787 1599.87 114.944C1596.34 116.645 1593.54 117.998 1591.87 118.612C1563.95 129.134 1535.02 137.028 1510.39 143.35L1507.66 144.055C1486.17 149.561 1465.87 154.77 1446.62 164.062C1423.9 175.062 1408.59 191.672 1396.62 206.483C1385 220.854 1369.26 239.612 1350.5 257.264C1347.64 259.956 1344.53 262.667 1341.23 265.54C1326.3 278.533 1309.38 293.26 1311.7 310.957C1322.54 348.279 1368.3 374.88 1407.5 387.31C1443.64 398.77 1484.92 405.344 1520.75 405.344C1532.77 405.399 1544.76 404.568 1556.59 402.859C1578.5 399.572 1595.45 390.526 1605.64 376.698C1616.84 361.518 1618.75 341.421 1610.89 321.556C1608.12 314.568 1605.08 307.644 1602.14 300.947C1588.36 269.591 1575.33 239.981 1590.56 205.254C1597.15 190.222 1607.25 176.233 1617.02 162.716C1618.44 160.762 1619.85 158.808 1621.23 156.854C1622.77 154.731 1624.43 152.48 1626.2 150.124C1635.74 137.39 1647.59 121.537 1646.86 107.8C1646.69 103.329 1644.03 101.161 1638.8 101.161Z" fill="#EFF1F2"/>
<path d="M1918 140.05C1906.47 140.477 1894.92 139.694 1887.51 133.029C1884.44 125.316 1901.91 116.782 1918 110.518V109.354C1900.98 115.902 1882.7 124.844 1886.33 133.476L1886.46 133.651C1893.17 139.759 1902.97 141.208 1913.16 141.208C1914.76 141.208 1916.36 141.163 1918 141.105V140.05Z" fill="#EFF1F2"/>
<path d="M647.6 600.25C634.096 567.658 597.616 564.306 562.344 561.071C547.024 559.66 531.144 558.211 517.792 554.296C506.136 550.886 496.432 543.568 491.832 534.716C489.952 531.261 488.998 527.522 489.034 523.747C489.07 519.971 490.094 516.245 492.04 512.813C501.984 494.696 518.816 481.994 543.496 473.99C590.344 458.836 652.504 433.031 651.312 384.12C651.016 371.826 646.336 362.767 637.408 357.247C616.608 344.306 576.776 352.381 547.704 358.27C540.616 359.713 533.92 361.065 528.504 361.9C479.8 369.412 454.104 336.548 446.96 306.117C443.68 292.218 441.288 277.879 438.96 264.013C437.288 253.944 435.552 243.54 433.488 233.394L433.432 233.232C428.76 226.134 424.928 218.706 421.2 211.588C415.792 201.112 410.2 190.274 401.816 180.18C367.112 138.289 328.4 115.234 286.736 111.63C268.64 110.064 234.912 110.401 212.2 130.259C199.104 141.706 194.8 157.131 190.712 172.04C190.096 174.278 189.48 176.498 188.832 178.691C182.008 202.05 170.328 216.629 150.952 225.972C143.184 229.712 135.072 232.494 127.208 235.18C112.68 240.149 98.952 244.886 87.312 255.135C71.728 268.898 64.112 288.782 57.312 306.343C56.392 308.724 55.488 311.073 54.576 313.383C46.576 333.526 37.776 356.988 33.592 380.483C32.48 386.805 31.84 394.104 31.192 401.836C28.792 429.66 25.824 463.184 -1.976 476.804V478.099C27.016 464.51 30.024 430.294 32.48 401.933C33.152 394.227 33.784 386.941 34.88 380.651C39.032 357.241 47.856 333.83 55.816 313.72C56.728 311.416 57.632 309.067 58.552 306.68C65.272 289.209 72.88 269.454 88.272 255.866C99.728 245.753 113.328 241.094 127.736 236.163C135.624 233.465 143.784 230.676 151.624 226.897C171.328 217.398 183.192 202.62 190.104 178.957C190.752 176.757 191.368 174.537 191.984 172.292C196.072 157.52 200.296 142.243 213.168 130.997C235.496 111.468 268.768 111.145 286.608 112.691C327.864 116.263 366.28 139.163 400.8 180.756C409.112 190.772 414.68 201.558 420.064 211.989C423.76 219.146 427.576 226.554 432.272 233.698C434.32 243.805 436.048 254.171 437.72 264.2C440.032 278.086 442.424 292.438 445.72 306.369C449.944 324.299 459.528 339.809 472.704 350.052C487.856 361.822 507.24 366.293 528.768 362.993C534.224 362.152 540.936 360.787 548.04 359.35C576.84 353.527 616.312 345.523 636.648 358.14C645.248 363.478 649.76 372.246 650.048 384.21C651.216 432.468 589.536 458.04 543.04 473.077C518.032 481.166 500.976 494.042 490.888 512.425C488.87 515.987 487.807 519.854 487.77 523.772C487.733 527.69 488.722 531.57 490.672 535.156C495.4 544.273 505.392 551.805 517.384 555.312C530.896 559.272 546.832 560.728 562.184 562.145C597.064 565.341 633.12 568.654 646.368 600.613C659.896 633.27 641.96 682.485 609.472 701.897C587.792 714.838 566.88 705.171 547.52 692.786C524.995 678.27 500.786 665.549 475.232 654.804C455.112 646.424 432.472 644.101 410.576 641.863C387.84 639.527 364.328 637.113 344.272 627.802C328.624 620.536 318.392 607.704 308.488 595.307C306.488 592.803 304.44 590.227 302.392 587.775C289.424 572.246 275.192 556.03 256.184 544.021C214.888 517.906 163.808 522.364 114.744 531.08C75.952 537.958 50.152 561.22 35.352 579.525C29.912 586.235 25.248 593.941 20.736 601.402C14.168 612.176 7.456 623.273 -2 632.176V633.742C8.064 624.618 15.072 613.094 21.904 601.797C26.408 594.375 31.056 586.694 36.44 580.036C51.12 561.918 76.664 538.844 115.032 532.044C163.832 523.406 214.536 518.96 255.408 544.81C274.248 556.723 288.432 572.841 301.344 588.325C303.376 590.777 305.44 593.34 307.424 595.844C317.408 608.345 327.736 621.286 343.648 628.676C363.92 638.09 387.568 640.517 410.44 642.872C432.216 645.104 454.744 647.401 474.664 655.71C500.143 666.432 524.285 679.117 546.752 693.589C559.832 701.949 573.608 709.118 587.928 709.118C595.232 709.118 602.68 707.261 610.24 702.751C643.136 683.054 661.28 633.27 647.6 600.25Z" fill="#EFF1F2"/>
<path d="M604.64 591.756C586.904 581.901 562.936 581.331 539.76 580.756C507.472 579.986 476.96 579.248 461.296 555.85C440.856 525.341 471.192 481.141 495.12 460.448C502.596 453.911 511.251 448.327 520.792 443.883C526.544 441.224 532.872 439.82 538.992 438.454C544.184 437.296 549.568 436.106 554.52 434.151C577.552 430.787 610.664 416.959 612.344 396.667C612.872 390.236 610.584 385.473 605.544 382.516C596.144 377.003 578.16 379.003 565.432 383.163C560.512 384.787 555.592 386.729 550.832 388.605C534.984 394.843 518.6 401.313 500.256 396.667C456.552 385.596 431.928 341.758 426.92 303.226C426.483 299.839 426.056 296.492 425.64 293.183C420.984 256.081 416.96 224.038 391.336 190.948C375.6 170.572 332.608 123.828 274.08 129.316C235.552 132.926 226.392 158.045 217.528 182.336C215.608 187.603 213.616 193.057 211.336 198.253C206.816 215.122 200.608 234.055 184.136 245.165C173.296 252.483 159.96 255.11 147.064 257.653C137.392 259.562 127.392 261.536 118.32 265.457C83.408 280.546 70.536 312.692 59.184 341.046L58.152 343.634C48.2 368.423 48.144 394.28 48.08 419.295C48.08 427.577 48.04 436.118 47.656 444.66C46.984 459.736 46.152 478.494 35.016 491.326C26.744 500.824 12.808 503.859 -2 504.571V505.638C11.904 504.92 27.352 501.944 36.072 491.901C47.424 478.824 48.264 459.891 48.944 444.608C49.32 436.144 49.344 427.571 49.368 419.276C49.432 394.357 49.496 368.591 59.384 343.945L60.416 341.357C71.696 313.177 84.48 281.277 118.936 266.382C127.856 262.5 137.784 260.559 147.376 258.669C160.416 256.081 173.896 253.434 184.976 245.967C201.776 234.65 208.032 215.517 212.576 198.544C214.848 193.368 216.84 187.913 218.776 182.627C227.512 158.686 236.552 133.884 274.232 130.357C332.056 124.935 374.632 171.303 390.232 191.491C415.704 224.394 419.712 256.314 424.352 293.287C424.776 296.6 425.152 299.945 425.632 303.342C430.688 342.211 455.6 386.45 499.864 397.657C518.696 402.426 535.312 395.878 551.392 389.537C556.136 387.673 560.992 385.739 565.904 384.127C578.32 380.038 595.776 378.051 604.792 383.331C609.44 386.062 611.544 390.52 611.048 396.564C609.448 416.318 576.824 429.823 554.2 433.103L554.032 433.142C549.16 435.083 543.816 436.267 538.64 437.419C532.448 438.791 526.04 440.221 520.144 442.938C510.49 447.459 501.733 453.131 494.168 459.762C470.008 480.668 439.4 525.38 460.16 556.368C476.16 580.309 508.48 581.086 539.712 581.83C562.712 582.386 586.488 582.956 603.904 592.636C624.152 603.881 628.856 625.862 624.552 642.64C619.752 661.347 605.04 674.378 585.184 677.471C564.064 680.771 541.04 668.866 522.536 659.289C520.768 658.364 519.048 657.464 517.376 656.623C513.6 654.682 509.84 652.741 506.088 650.8C490.552 642.711 474.496 634.358 457.16 628.405C443.696 623.766 429.368 621.773 415.504 619.883C404.376 618.356 392.856 616.758 381.904 613.814C356.16 606.89 339.008 593.755 324.304 580.626C319.856 576.647 315.504 572.59 310.896 568.293C284.256 543.459 256.712 517.777 216.024 512.536C192.976 505.418 161.36 508.388 135.96 510.77C131.96 511.138 128.096 511.507 124.408 511.818C119.232 512.245 113.824 512.51 108.08 512.782C90.144 513.649 71.584 514.542 56.792 520.819C40.704 527.658 32.472 540.58 24.504 553.081C22.72 555.87 20.88 558.768 19.016 561.493C14.448 567.413 10.272 573.832 6.216 580.024C3.552 584.101 0.848 588.242 -2 592.312V594.408C1.28 589.821 4.336 585.123 7.36 580.484C11.36 574.304 15.544 567.911 20.104 561.991C22 559.241 23.84 556.336 25.632 553.54C33.504 541.188 41.632 528.408 57.376 521.731C71.92 515.551 90.336 514.665 108.144 513.804C113.888 513.526 119.344 513.267 124.52 512.834C128.208 512.523 132.088 512.187 136.096 511.786C161.352 509.424 192.8 506.48 215.68 513.513C256.032 518.728 283.424 544.261 309.912 568.96C314.52 573.269 318.88 577.326 323.336 581.306C338.152 594.564 355.448 607.783 381.48 614.784C392.544 617.767 404.112 619.359 415.288 620.899C429.08 622.795 443.288 624.781 456.672 629.311C473.904 635.225 489.912 643.546 505.4 651.628C509.168 653.569 512.92 655.51 516.696 657.451C518.368 658.299 520.088 659.198 521.848 660.104C538.352 668.652 558.408 679.037 577.752 679.037C580.333 679.043 582.908 678.843 585.44 678.442C605.824 675.258 620.912 661.942 625.824 642.808C631.104 622.251 622.584 601.727 604.64 591.756Z" fill="#EFF1F2"/>
<path d="M794.608 544.823H793.496C760.4 541.529 738.984 507.203 733.2 496.759C720.896 474.494 725.2 453.406 731.032 431.982C737.36 408.895 743.896 385.038 738.8 360.198C736.224 347.671 731.776 335.234 727.472 323.192C724.272 314.353 721.032 305.211 718.496 296.016L718.448 295.751C714.888 271.369 734.944 256.086 778.048 250.314C787.648 249.02 797.32 248.004 806.672 247.014C830.616 244.465 853.224 242.064 875.936 235.652C912.208 225.402 938.856 206.663 967.072 186.825C978.616 178.704 990.552 170.305 1003.21 162.547C1024.74 148.04 1052.43 138.755 1079.06 137.15C1089.12 136.548 1096.85 138.444 1102.14 142.728C1111.46 150.324 1111.38 164.042 1111.32 176.142C1111.32 179.946 1111.27 183.531 1111.52 186.799C1112.06 193.742 1113.63 200.963 1115.16 207.932C1118.14 221.52 1121.22 235.568 1117.24 249.492C1110.98 271.46 1086.12 282.065 1064.18 291.415L1057.5 294.256C1012.81 313.299 957.168 336.962 959.424 382.638C959.936 393.211 963.48 403.686 966.904 413.806C970.536 424.567 974.304 435.696 974.648 447.272C975.224 466.205 961.272 478.668 946.912 489.816C932.904 502.111 908.92 509.157 887.712 515.388C880.76 517.439 874.192 519.374 868.368 521.373C861.968 523.573 855.2 526.479 848.048 529.559C830.648 537.058 812.608 544.823 794.608 544.823ZM794.096 539.608H794.608C811.008 539.608 828.328 532.153 845.088 524.952C852.368 521.813 859.24 518.856 865.888 516.572C871.872 514.528 878.512 512.567 885.544 510.49C906.064 504.453 929.304 497.607 942.248 486.225L942.392 486.109C956.288 475.329 968.72 464.258 968.208 447.408C967.88 436.466 964.208 425.654 960.696 415.198C957.184 404.741 953.496 394.019 952.984 382.845C950.584 333.895 1010.66 308.316 1054.51 289.668L1061.17 286.821C1082.9 277.562 1105.36 267.979 1110.97 248.341C1114.64 235.458 1111.69 221.941 1108.82 208.87C1107.22 201.752 1105.62 194.395 1105.1 187.161C1104.84 183.719 1104.86 180.043 1104.87 176.161C1104.94 165.077 1105.02 152.511 1097.56 146.448C1093.61 143.213 1087.69 141.919 1079.53 142.398C1054.2 143.918 1027.84 152.751 1007.18 166.675C994.592 174.401 982.752 182.735 971.272 190.804C943.84 210.093 915.488 230.042 878.048 240.628C854.712 247.221 830.712 249.771 807.496 252.242C798.2 253.226 788.584 254.248 779.088 255.516C739.552 260.764 721.8 273.705 724.824 295.058C727.304 304.02 730.528 313.04 733.624 321.769C737.976 333.946 742.48 346.545 745.12 359.363C750.432 385.2 743.752 409.575 737.288 433.128C731.44 454.448 727.536 473.802 739.056 494.637C750.224 514.799 770.52 537.181 794.096 539.646V539.608Z" fill="#EFF1F2"/>
<path d="M393.08 589.088C361.232 589.088 334.28 567.263 310.504 548.013C303.616 542.436 297.112 537.168 290.792 532.665C286.704 530.232 282.72 527.734 278.856 525.314C264.088 516.035 250.128 507.274 230.688 502.421C206.496 496.384 180.672 496.268 155.704 496.164H149.728C121.728 496.061 89.9918 495.957 77.0718 471.524C69.4718 457.147 67.4718 441.468 65.5998 426.308C64.7998 419.747 63.9278 412.959 62.6318 406.404C61.2478 375.818 67.2558 332.219 103.704 297.802C118.672 287.009 135.704 282.214 159.04 282.214C161.44 282.214 164.016 282.266 166.664 282.37C169.064 282.454 171.304 282.499 173.432 282.499C196.952 282.499 210.232 276.734 216.584 263.786C222.08 252.54 224.736 238.732 227.544 224.108C233.632 192.435 239.928 159.687 275.904 147.995C281.827 146.051 288.159 145.051 294.552 145.051C337.184 145.051 380.08 190.707 395.64 221.559C406.264 242.634 407.64 264.569 409 285.78C410.024 301.956 411.088 318.657 416.2 334.885C422.36 354.342 434.224 372.414 445.704 389.846C447.864 393.14 450.032 396.44 452.152 399.727C466.872 422.574 468.376 437.334 458.32 460.498C455.232 467.616 451.744 474.734 448.376 481.677C440.984 496.824 433.344 512.503 429.424 528.789C428.184 533.894 428.032 540.158 427.864 546.784C427.512 561.271 427.12 577.7 414.6 585.704L414.432 585.776C407.629 587.939 400.389 589.063 393.08 589.088ZM159.04 283.23C136.056 283.23 119.272 287.941 104.64 298.501C68.5038 332.588 62.5438 375.941 63.9118 406.275C65.1998 412.823 66.0558 419.604 66.8798 426.172C68.7758 441.255 70.7278 456.855 78.2478 471.091C90.8318 494.883 122.128 495.032 149.736 495.097H155.712C180.776 495.2 206.688 495.317 231.072 501.399C250.728 506.31 264.776 515.123 279.648 524.467C283.504 526.88 287.48 529.371 291.592 531.824C297.992 536.353 304.504 541.659 311.416 547.25C335.016 566.351 361.768 588.014 393.08 588.014C400.201 587.985 407.253 586.888 413.88 584.779C425.88 577.073 426.24 560.941 426.592 546.713C426.76 540.041 426.912 533.733 428.192 528.537C432.144 512.153 439.808 496.443 447.216 481.237C450.584 474.339 454.064 467.195 457.144 460.097C467.056 437.263 465.576 422.697 451.056 400.167C448.928 396.867 446.776 393.58 444.6 390.28C433.096 372.77 421.184 354.691 415 335.092C409.832 318.767 408.768 301.995 407.744 285.78C406.4 264.653 405.016 242.808 394.48 221.908C379.04 191.309 336.616 146.041 294.576 146.041C288.343 146.054 282.172 147.038 276.4 148.94C241.104 160.412 234.864 192.862 228.832 224.238C226.008 238.926 223.344 252.793 217.8 264.142C209.312 281.509 188.424 283.515 173.448 283.515C171.296 283.515 169.072 283.476 166.616 283.385C163.976 283.282 161.432 283.23 159.04 283.23Z" fill="#EFF1F2"/>
<path d="M1505.83 391.335C1442.74 391.335 1345.46 370.138 1336.1 311.747C1331.82 291.688 1354.9 268.834 1373.47 250.464C1378.36 245.618 1382.98 241.043 1386.49 237.09L1389.74 233.401C1409.58 210.942 1430.08 187.719 1461.18 173.872C1476.85 166.929 1510.54 155.172 1537.61 155.172C1549.16 155.172 1558.41 157.294 1565.03 161.487C1576.95 170.345 1573.13 187.059 1570.05 200.492C1569.41 203.332 1568.8 206.005 1568.39 208.347C1565.88 223.793 1566.07 239.447 1568.94 254.851C1571.39 267.268 1576.36 279.44 1581.18 291.242C1587.69 307.198 1594.42 323.711 1594.98 341.065C1596.1 374.538 1555.97 388.818 1521.26 390.889C1516.34 391.193 1511.16 391.335 1505.83 391.335ZM1537.59 156.252C1510.78 156.252 1477.33 167.9 1461.8 174.83C1430.94 188.521 1410.51 211.654 1390.77 234.016L1387.51 237.698C1383.98 241.69 1379.36 246.278 1374.46 251.131C1356.06 269.332 1333.17 291.986 1337.36 311.592C1346.61 369.335 1443.17 390.287 1505.82 390.294C1511.11 390.294 1516.26 390.151 1521.14 389.86C1555.28 387.835 1594.74 373.852 1593.67 341.117C1593.11 323.938 1586.41 307.47 1579.92 291.598C1575.12 279.776 1570.11 267.56 1567.64 255.052C1564.74 239.55 1564.55 223.794 1567.1 208.25C1567.49 205.875 1568.11 203.19 1568.75 200.343C1571.78 187.162 1575.53 170.766 1564.17 162.322C1557.82 158.304 1548.84 156.252 1537.59 156.252Z" fill="#EFF1F2"/>
<path d="M364.944 548.622C348.504 548.622 331.904 538.437 319.784 530.996L319.6 530.886C278.504 502.726 239.72 479.412 180.808 479.956H180.552C151.64 478.383 121.88 476.759 102.832 455.684C89.32 440.731 85.008 422.574 80.832 405.007L80.736 404.515C77.616 377.287 81.464 339.958 117.408 316.742L117.648 316.606C125.209 312.547 134.11 310.432 143.184 310.536C154.92 310.536 166.816 313.577 178.312 316.515C189.808 319.453 200.616 322.235 211.216 322.235C219.193 322.339 227.008 320.403 233.544 316.703C251.264 303.315 251.784 283.418 252.28 264.168C252.328 262.188 252.387 260.223 252.456 258.273C252.576 254.643 252.64 250.89 252.696 247.273C252.968 229.693 253.256 211.517 261.496 194.674C272.136 173.004 288.144 168.455 299.704 168.455C333 168.455 371.16 204.263 382.8 228.916C392.696 249.764 393.128 271.764 393.536 293.027C393.92 312.846 394.336 333.339 402.464 352.627C405.568 359.997 409.208 367.393 412.728 374.556C418.728 386.747 424.928 399.345 428.84 412.429C435.384 434.332 431.432 453.381 423.48 475.258C422.784 477.199 422.064 479.212 421.312 481.314C414.112 501.516 404.312 529.197 385.264 542.364C379.67 546.397 372.437 548.624 364.944 548.622ZM323.688 526.854C335.128 533.869 350.696 543.4 364.944 543.4C370.909 543.414 376.668 541.631 381.096 538.398C398.696 526.233 408.176 499.439 415.136 479.865C415.883 477.751 416.605 475.724 417.304 473.783C425.184 452.113 428.816 434.493 422.584 413.658C418.8 400.93 412.672 388.507 406.8 376.491C403.24 369.27 399.6 361.809 396.4 354.316C387.928 334.257 387.528 313.332 387.128 293.111C386.728 272.295 386.328 250.774 376.856 230.76C365.992 207.764 328.856 173.657 299.76 173.657C285.848 173.657 275 181.37 267.528 196.583C259.696 212.533 259.424 230.23 259.152 247.319C259.096 250.962 259.04 254.727 258.904 258.409C258.84 260.35 258.784 262.292 258.736 264.233C258.232 283.677 257.664 305.716 237.776 320.617L237.44 320.837C229.783 325.225 220.598 327.527 211.216 327.412C199.624 327.412 187.808 324.383 176.376 321.465C165.344 318.637 153.936 315.726 143.184 315.726C135.416 315.63 127.791 317.422 121.296 320.87C87.76 342.598 84.184 377.966 87.128 403.874V403.984C91.128 420.983 95.336 438.557 108 452.566C125.272 471.68 152.264 473.155 180.8 474.708H182.552C242.592 474.727 283.6 499.38 323.688 526.854Z" fill="#EFF1F2"/>
<path d="M1278.75 226.231C1263.74 226.231 1252.72 219.249 1248.53 207.078C1247.73 200.265 1250.75 193.716 1257.14 188.061C1267.06 179.261 1284.34 173.354 1300.11 173.354C1309.71 173.354 1317.52 175.67 1322.06 179.895C1326.06 183.596 1327.56 188.592 1326.54 194.778C1323.44 213.303 1298.86 226.231 1278.75 226.231ZM1300.1 174.395C1284.66 174.395 1267.77 180.174 1258.08 188.766C1251.94 194.208 1249.06 200.472 1249.78 206.884C1255.25 222.782 1270.28 225.176 1278.74 225.176C1298.31 225.176 1322.23 212.617 1325.23 194.596C1326.2 188.773 1324.8 184.03 1321.06 180.562C1316.78 176.589 1309.33 174.395 1300.1 174.395Z" fill="#EFF1F2"/>
<path d="M829.92 500.079C814.89 500.067 800.032 497.488 786.32 492.509L786.152 492.424C766.952 478.435 759.136 463.307 759.912 441.889C760.216 433.477 761.304 425.014 762.36 416.809C763.848 405.123 765.4 393.043 764.704 381.078C763.856 366.571 760.144 352.155 756.544 338.217C754.376 329.806 752.136 321.083 750.536 312.438C746.256 272.534 797.08 264.084 837.912 257.303C848.544 255.53 858.584 253.86 867.064 251.783C909.464 241.385 941.4 222.484 975.168 202.471C980.96 199.041 986.851 195.58 992.84 192.086C1007.3 183.674 1026.29 174.046 1044.78 174.046C1050.7 174.015 1056.56 175.101 1061.88 177.216C1079.74 184.334 1088.1 208.275 1089.82 226.626C1093.02 260.965 1058.62 276.786 1025.27 292.082C1011.54 298.384 998.57 304.376 988.12 311.494C966.992 325.981 946.424 342.74 938.944 367.07C934.272 382.276 938.784 397.481 943.144 412.15C943.944 414.868 944.744 417.579 945.496 420.284C949.76 435.71 952.512 455.348 935.896 470.431C919.536 485.274 891.032 490.994 868.128 495.595L865.392 496.145C852.32 498.798 840.72 500.079 829.92 500.079ZM786.928 491.59C800.449 496.488 815.096 499.024 829.912 499.031C840.608 499.031 852.104 497.737 865.048 495.148L867.784 494.599C890.512 490.069 918.816 484.356 934.904 469.758C951.152 455.024 948.416 435.716 944.224 420.53C943.48 417.831 942.672 415.127 941.872 412.416C937.48 397.604 932.928 382.288 937.68 366.837C945.248 342.248 965.984 325.315 987.28 310.717C997.832 303.477 1010.84 297.504 1024.64 291.17C1057.61 276.028 1091.7 260.376 1088.53 226.703C1086.83 208.65 1078.69 185.097 1061.33 178.141C1056.19 176.102 1050.53 175.057 1044.8 175.087C1026.67 175.087 1007.92 184.618 993.6 192.927C987.6 196.401 981.744 199.883 975.944 203.312C942.08 223.371 910.096 242.323 867.456 252.773C858.912 254.876 848.848 256.539 838.192 258.318C795.752 265.371 747.656 273.363 751.84 312.309C753.44 320.896 755.656 329.592 757.824 337.991C761.432 351.974 765.16 366.461 766.008 381.02C766.704 393.062 765.16 405.181 763.608 416.913C762.56 425.091 761.488 433.561 761.208 441.915C760.4 462.99 768.128 477.853 786.928 491.59Z" fill="#EFF1F2"/>
<path d="M1496.74 376.246C1439.49 376.246 1373.1 357.345 1362.66 315.849C1357.86 294.587 1375.5 271.39 1393.47 251.493C1411.13 231.932 1428.89 213.277 1451.87 200.194C1464.67 192.927 1484.82 185.156 1503.03 185.156C1514.38 185.156 1523.64 188.133 1530.54 193.995C1540.94 207.583 1543.92 223.262 1546.75 238.403C1548.11 245.727 1549.53 253.285 1551.77 260.519C1553.51 265.696 1555.47 270.969 1557.37 276.087C1564.65 295.855 1572.18 316.296 1571.3 337.027C1565.63 360.652 1541.22 374.874 1504.35 376.123C1501.89 376.207 1499.31 376.246 1496.74 376.246ZM1503.06 186.198C1485.17 186.198 1465.28 193.872 1452.66 201.08C1429.79 214.067 1412.1 232.644 1394.51 252.14C1376.71 271.856 1359.17 294.846 1363.93 315.668C1374.22 356.588 1439.99 375.23 1496.73 375.23C1499.29 375.23 1501.85 375.184 1504.3 375.107C1540.55 373.871 1564.5 359.966 1570.06 336.93C1570.91 316.451 1563.4 296.101 1556.15 276.411C1554.26 271.293 1552.3 265.993 1550.55 260.81C1548.29 253.537 1546.86 245.928 1545.5 238.584C1542.7 223.546 1539.79 208.004 1529.55 194.662C1523 189.071 1514.05 186.198 1503.06 186.198Z" fill="#EFF1F2"/>
<path d="M349.032 502.92C331.232 502.92 316.008 493.764 301.28 484.906C296.528 482.052 292.048 479.361 287.536 477.005C266.296 465.921 244.768 458.241 223.536 454.261C213.936 452.443 203.92 451.789 194.272 451.155C179.744 450.204 164.712 449.214 150.688 444.232C132.496 437.761 119.432 423.461 111.872 401.707C108.264 382.062 111.32 367.989 121.192 358.619C127.784 352.362 135.68 349.321 145.344 349.321C156.28 349.321 167.632 353.158 178.616 356.866C180.128 357.377 181.624 357.888 183.104 358.38C198.072 363.33 209.592 365.536 220.48 365.536C232.44 365.536 243.68 362.722 254.8 356.924C272.536 347.684 286.344 330.912 290.8 313.151C292.936 304.668 290.856 291.312 288.656 277.181C283.912 246.736 278.528 212.229 309.152 204.063C310.8 203.826 312.47 203.707 314.144 203.707C333.152 203.707 349.632 219.288 357.52 234.721C366.32 251.991 365.816 270.956 364.384 285.547C362.224 307.327 361.184 325.619 368.968 346.138C372.168 354.549 376.08 362.961 379.856 371.101C384.72 381.538 389.736 392.318 393.312 403.305C403.712 435.393 396.048 487.746 354.408 502.59L354.224 502.629C352.502 502.813 350.768 502.91 349.032 502.92ZM145.328 350.363C136.064 350.363 128.528 353.288 122.128 359.292C112.528 368.422 109.552 382.224 113.08 401.487C120.512 422.84 133.328 436.946 151.152 443.281C164.984 448.192 179.896 449.169 194.352 450.114C204.056 450.761 214.08 451.408 223.808 453.245C245.184 457.276 266.864 464.976 288.224 476.125C292.776 478.5 297.272 481.205 302.04 484.071C316.592 492.826 331.64 501.878 349.024 501.878C350.682 501.878 352.339 501.794 353.984 501.626C394.888 486.983 402.392 435.302 392.08 403.596C388.512 392.668 383.504 381.901 378.664 371.502C374.872 363.356 370.96 354.938 367.752 346.468C359.904 325.762 360.936 307.385 363.104 285.489C364.528 271.014 365.056 252.211 356.336 235.154C348.616 220.032 332.568 204.775 314.152 204.775C312.587 204.777 311.024 204.883 309.48 205.092C279.952 212.953 285.256 247.008 289.936 277.045C292.16 291.28 294.248 304.706 292.064 313.358C287.512 331.385 273.496 348.415 255.472 357.798C244.12 363.712 232.664 366.578 220.456 366.578C209.4 366.578 197.72 364.352 182.592 359.338C181.112 358.852 179.608 358.348 178.104 357.836C167.24 354.161 156.008 350.363 145.328 350.363Z" fill="#EFF1F2"/>
<path d="M857.872 467.823C829.576 467.823 808.272 456.68 800.864 438.013C796.536 427.084 795.368 415.476 794.232 404.256C793.6 397.915 792.936 391.353 791.712 385.032C789.624 374.226 786.64 363.362 783.712 352.866C781.776 345.833 779.776 338.56 778.064 331.371C770.064 289.183 811.8 278.81 848.608 269.661C890.208 259.308 924.608 250.016 956.688 232.533C958.288 231.653 960.096 230.663 962 229.602C978.472 220.472 1006 205.182 1027.6 205.182C1040.96 205.182 1050.42 211.005 1055.68 222.497C1069.19 251.938 1030.81 271.356 1002.78 285.54C997.48 288.219 992.48 290.755 988.208 293.149C963.832 306.815 921.664 335.855 913.104 376.672C911.144 385.983 912.936 396.795 914.704 407.252C918.352 429.31 922.136 452.106 891.216 462.478C880.638 466.001 869.311 467.817 857.872 467.823ZM1027.6 206.236C1006.43 206.236 979.072 221.416 962.736 230.482C960.816 231.543 959.04 232.533 957.416 233.413C925.152 250.974 890.696 260.305 848.992 270.67C812.688 279.729 771.528 289.933 779.336 331.203C781.04 338.366 783.04 345.626 784.936 352.653C787.832 363.168 790.824 374.045 792.936 384.876C794.168 391.25 794.832 397.818 795.472 404.178C796.6 415.34 797.76 426.896 802.048 437.709C809.248 455.923 830.12 466.794 857.824 466.794C869.093 466.784 880.251 464.995 890.672 461.527C920.672 451.459 917.12 430.06 913.376 407.4C911.624 396.873 909.816 385.976 911.776 376.51C920.416 335.305 962.88 306.065 987.424 292.302C991.72 289.895 996.736 287.352 1002.05 284.666C1029.7 270.677 1067.56 251.518 1054.42 222.872C1049.44 211.833 1040.4 206.236 1027.6 206.236Z" fill="#EFF1F2"/>
<path d="M33.832 240.13C28.56 225.823 12.16 218.059 -2 213.963V215.069C11.784 219.113 27.528 226.645 32.6 240.434C36.824 251.926 36.44 264.938 35.8 273.732C35.3537 277.867 34.5679 281.974 33.448 286.026C32.032 291.811 30.56 297.783 31.048 303.225C31.6 309.734 27.92 318.553 24.648 326.344C23.376 329.398 22.168 332.278 21.312 334.808C19.6 339.874 17.832 344.928 16.064 349.981C13.064 358.555 9.96 367.413 7.2 376.2C5.672 381.118 4.328 386.255 3.016 391.231C1.48 397.093 -0.08 403.014 -2 408.825V412.707C0.52 405.706 2.416 398.543 4.272 391.471C5.576 386.508 6.928 381.383 8.464 376.498C11.216 367.723 14.32 358.872 17.32 350.305C19.088 345.251 20.856 340.191 22.568 335.125C23.416 332.627 24.616 329.754 25.88 326.713C29.168 318.838 32.888 309.889 32.28 303.192C31.816 297.886 33.272 291.985 34.68 286.272C35.8172 282.167 36.6189 278.006 37.08 273.816C37.728 264.919 38.112 251.777 33.832 240.13Z" fill="#EFF1F2"/>
<path d="M1485.83 363.239C1443.59 363.239 1393.51 347.354 1383.33 312.484V312.413V312.341C1384.83 275.038 1415.61 235.639 1458.18 216.577C1465.38 213.341 1476.41 209.459 1488.05 209.459C1499.42 209.459 1508.54 213.141 1515.18 220.401C1527.77 234.19 1533.75 252.948 1539.03 269.487C1539.98 272.463 1540.92 275.407 1541.87 278.261C1542.47 280.04 1543.1 281.852 1543.72 283.683C1549.67 301.005 1556.44 320.643 1548.52 337.958C1541.72 352.841 1524.59 360.994 1496.18 362.909C1492.8 363.122 1489.33 363.239 1485.83 363.239ZM1384.61 312.309C1394.67 346.603 1444.13 362.197 1485.83 362.197C1489.3 362.197 1492.74 362.081 1496.03 361.861C1523.9 359.991 1540.67 352.045 1547.28 337.596C1555.06 320.585 1548.38 301.121 1542.48 283.955C1541.85 282.124 1541.22 280.312 1540.63 278.533C1539.66 275.673 1538.73 272.709 1537.78 269.745C1532.27 252.488 1526.58 234.643 1514.14 221.009C1507.74 214.034 1498.94 210.501 1488.04 210.501C1476.68 210.501 1465.86 214.28 1458.79 217.45C1416.61 236.37 1386.13 275.368 1384.61 312.309Z" fill="#EFF1F2"/>
<path d="M14.736 249.319C10.3802 242.924 4.72217 237.168 -2 232.295V233.764C4.23841 238.396 9.5044 243.818 13.592 249.817C22 262.804 23.808 280.824 18.88 303.374C14.24 324.65 6.336 345.433 -2 365.699V368.98C6.8 347.756 15.264 325.937 20.152 303.549C25.128 280.779 23.296 262.532 14.736 249.319Z" fill="#EFF1F2"/>
<path d="M1918 438.783C1914.53 436.971 1911.18 435.101 1908.17 433.419C1905.34 431.84 1902.67 430.352 1900.44 429.2C1885.76 421.769 1871.93 413.294 1859.11 403.874C1846.79 394.859 1835.9 384.644 1826.69 373.462C1821.34 366.869 1817.59 359.182 1813.97 351.741C1810.25 344.112 1806.41 336.211 1800.89 329.663C1796.98 324.344 1795.94 319.278 1797.82 314.612C1802.56 302.726 1824.77 294.981 1842.62 288.73C1849.86 286.2 1856.14 284.013 1860.35 281.865C1874.84 274.508 1887.99 264.789 1900.06 255.387C1905.74 251.114 1911.73 247.119 1918 243.423V242.129C1911.51 246.095 1904.87 250.198 1899.14 254.675C1887.14 264.045 1874.03 273.718 1859.64 281.03C1855.51 283.133 1849.3 285.307 1842.1 287.818C1824.02 294.127 1801.51 301.982 1796.58 314.315C1794.59 319.278 1795.67 324.635 1799.82 330.252C1805.26 336.722 1809.08 344.578 1812.78 352.148C1816.49 359.719 1820.2 367.374 1825.58 374.064C1834.86 385.311 1845.82 395.586 1858.21 404.657C1871.09 414.117 1884.98 422.632 1899.73 430.1C1901.94 431.238 1904.6 432.72 1907.42 434.292C1910.74 436.149 1914.32 438.175 1917.98 440.045L1918 438.783Z" fill="#EFF1F2"/>
<path d="M1477.33 345.873C1445.38 345.873 1409.75 329.696 1407.92 303.607C1409.25 277.932 1433.7 244.796 1466.64 238.254C1469.63 237.651 1472.69 237.338 1475.77 237.322C1511.18 237.322 1525.05 282.396 1527.41 306.221C1528.54 317.564 1525.11 326.836 1517.2 333.779C1508.31 341.57 1494.16 345.873 1477.33 345.873ZM1475.73 238.332C1472.76 238.346 1469.81 238.65 1466.93 239.238C1434.54 245.708 1410.49 278.346 1409.18 303.601C1410.96 329.049 1445.93 344.831 1477.3 344.831C1493.78 344.831 1507.6 340.645 1516.24 333.042C1523.88 326.325 1527.21 317.318 1526.1 306.279C1523.8 282.765 1510.25 238.332 1475.77 238.332H1475.73Z" fill="#EFF1F2"/>
<path d="M-2 259.471V261.794C6.096 275.453 6.472 291.442 4.608 304.5C3.27384 313.045 1.06356 321.486 -2 329.735V333.391C1.416 324.332 4.464 314.626 5.88 304.642C7.856 290.782 7.344 273.706 -2 259.471Z" fill="#EFF1F2"/>
<path d="M854.864 399.882C830.064 399.882 806.48 344.274 802.696 330.071C798.4 291.946 852.744 280.791 896.408 271.836C908.48 269.357 919.864 267.021 928.592 264.349C934.336 262.596 941.256 259.567 948.592 256.371C963.352 249.9 980.08 242.627 993.856 242.627C996.086 242.617 998.31 242.834 1000.47 243.274C1003.39 243.889 1005.13 245.08 1005.61 246.84C1007.86 255.051 980.08 273.628 969.608 280.616C968.008 281.71 966.808 282.499 966.288 282.881C930.816 309.242 901 342.663 875.144 385.051C869.144 394.861 862.32 399.882 854.864 399.882ZM993.856 243.663C980.408 243.663 963.832 250.897 949.2 257.283C941.832 260.519 934.864 263.54 929.048 265.32C920.248 268.011 908.832 270.354 896.728 272.839C853.528 281.703 799.784 292.736 803.928 329.909C808.968 348.842 832.272 398.834 854.824 398.84C861.752 398.84 868.184 394.039 873.96 384.605C899.88 342.093 929.792 308.576 965.384 282.124C965.92 281.723 967.12 280.927 968.76 279.827C978.072 273.602 1006.36 254.669 1004.3 247.079C1003.94 245.72 1002.57 244.808 1000.12 244.297C998.07 243.867 995.97 243.646 993.856 243.637V243.663Z" fill="#EFF1F2"/>
<path d="M1918 422.012C1916.4 420.996 1914.94 420.116 1913.69 419.424C1903.33 413.628 1893.67 407.055 1884.84 399.792C1876 392.422 1847.56 366.792 1853.64 346.242C1856.2 327.477 1870.66 314.154 1887.87 299.919C1894.39 294.335 1900.82 288.511 1907.03 282.882C1910.67 279.569 1914.33 276.249 1918.03 272.969V271.377C1917.74 271.655 1917.42 271.94 1917.13 272.205C1913.41 275.512 1909.74 278.838 1906.06 282.163C1899.86 287.793 1893.46 293.61 1886.95 299.168C1869.56 313.546 1854.95 326.992 1852.38 346.041C1846.19 367.038 1874.98 393.03 1883.95 400.504C1892.84 407.815 1902.56 414.429 1912.98 420.259C1914.41 421.061 1916.08 422.109 1918.03 423.326L1918 422.012Z" fill="#EFF1F2"/>
<path d="M1469.82 318.838C1459.3 318.838 1445.82 313.978 1442.39 300.299C1441.14 286.271 1452.79 273.608 1468.79 271.408H1468.88H1468.99C1481.9 273.142 1492.38 281.968 1495.09 293.376C1496.76 300.493 1495.09 306.738 1490.34 311.442C1485.58 316.146 1477.95 318.838 1469.82 318.838ZM1468.89 272.45C1453.54 274.605 1442.49 286.756 1443.64 300.163C1446.9 313.156 1459.78 317.796 1469.8 317.796C1477.54 317.796 1484.86 315.175 1489.34 310.775C1493.83 306.375 1495.42 300.377 1493.82 293.57C1491.23 282.628 1481.2 274.152 1468.89 272.45Z" fill="#EFF1F2"/>
<path d="M1918 405.118C1913.47 402.57 1909.26 399.67 1905.42 396.46C1894.64 387.065 1881.8 372.124 1881.84 354.304C1881.84 338.018 1894.64 322.76 1905.77 311.281C1909.69 307.231 1913.86 303.251 1918 299.369V297.777C1913.53 301.964 1909 306.254 1904.75 310.641C1893.5 322.249 1880.59 337.701 1880.54 354.304C1880.54 372.467 1893.54 387.634 1904.49 397.172C1908.6 400.608 1913.13 403.704 1918 406.412V405.118Z" fill="#EFF1F2"/>
<path d="M934.8 735.356C898.096 735.356 875.704 723.405 870 700.771L869.912 700.441V700.111C870.208 695.892 870.064 691.518 869.912 687.286C869.808 684.148 869.704 680.913 869.76 677.729L869.848 677.173C872.512 667.984 876.12 655.878 880.384 643.823C889.408 618.31 900.064 597.177 912.952 579.221C925.688 561.472 945.672 549.094 965 537.162C984.328 525.23 1004.46 512.716 1016.58 495.006C1028.06 478.234 1030.69 459.314 1024.86 435.477C1023.76 430.993 1022.39 426.457 1020.94 421.662C1015.64 404.114 1010.14 385.97 1017.86 368.713C1036.67 326.654 1107.22 315.887 1153.86 308.763L1156.26 308.401C1183.68 304.201 1212.1 301.93 1245.71 301.283H1246.13L1246.55 301.361C1270.13 306.02 1287.35 322.183 1302.55 336.444C1304.95 338.651 1307.22 340.819 1309.5 342.915C1348.86 378.756 1386.11 398.562 1434.04 409.103C1448.54 412.293 1463.49 414.926 1477.94 417.514C1491.04 419.837 1504.58 422.238 1517.8 425.046C1534.8 428.644 1545.26 434.752 1548.04 442.594C1550.58 449.835 1546.66 457.975 1536.38 466.775C1510.71 488.736 1479.75 491.764 1450.11 491.764C1441.75 491.764 1433.16 491.493 1424.85 491.227C1416.54 490.962 1407.86 490.697 1399.44 490.697C1393.22 490.697 1387.68 490.846 1382.49 491.15C1310.85 495.31 1256.89 509.494 1222.18 533.299C1194.93 551.986 1181.54 577.176 1167.37 603.829C1160.6 616.569 1153.6 629.75 1144.97 642.037C1120.54 676.804 1079.62 703.113 1023.37 720.254C1008.47 724.77 969.896 735.356 934.8 735.356ZM876.4 700.059C881.576 720.027 901.2 730.141 934.8 730.154C968.832 730.154 1006.52 719.801 1021.15 715.343C1075.99 698.649 1115.81 673.09 1139.46 639.41C1147.9 627.394 1154.83 614.35 1161.54 601.726C1175.38 575.681 1189.7 548.738 1218.1 529.255C1253.9 504.719 1309.09 490.127 1382.1 485.902C1387.43 485.591 1393.14 485.443 1399.5 485.443C1408.07 485.443 1416.76 485.714 1425.16 485.98C1433.42 486.245 1441.96 486.51 1450.18 486.51C1478.38 486.51 1507.78 483.676 1531.78 463.139C1540.38 455.775 1543.78 449.33 1541.91 443.986C1539.79 437.987 1530.91 433.16 1516.24 430.048C1503.14 427.272 1489.66 424.871 1476.63 422.574C1462.1 419.986 1447.03 417.327 1432.42 414.104C1383.19 403.266 1345.02 383.007 1304.78 346.357C1302.46 344.254 1300.12 342.067 1297.76 339.848C1283.27 326.26 1266.88 310.879 1245.5 306.498C1212.43 307.146 1184.46 309.397 1157.5 313.519L1155.1 313.881C1109.86 320.792 1041.5 331.236 1023.9 370.493C1016.86 386.255 1022.1 403.622 1027.18 420.413C1028.59 425.059 1030.05 429.854 1031.18 434.454C1037.33 459.567 1034.46 479.613 1022.22 497.523C1009.42 516.184 988.84 528.951 968.92 541.29C950.096 552.937 930.616 565.005 918.52 581.854C905.904 599.448 895.456 620.186 886.584 645.266C882.408 657.094 878.848 669 876.184 678.098C876.128 681.081 876.232 684.161 876.336 687.157C876.56 691.369 876.712 695.737 876.4 700.059Z" fill="#EFF1F2"/>
<path d="M1918 378.245C1914 371.328 1911.6 364.01 1911.75 357.287C1911.9 350.564 1913.94 343.796 1918 336.465V334.025C1913.11 342.25 1910.61 349.904 1910.47 357.274C1910.34 364.644 1913.17 372.959 1918 380.568V378.245Z" fill="#EFF1F2"/>
<path d="M959.912 711.687C927.2 711.687 907.544 700.292 903.072 678.687C900.312 642.95 917.88 599.823 946.8 571.353C957.616 560.696 970.8 551.656 983.536 542.882C1004.94 528.2 1027.09 513.007 1037.66 490.076C1046.46 470.955 1041.14 450.152 1035.93 430.035C1030.09 407.388 1024.04 383.965 1039.13 363.75C1060.73 334.807 1113.47 319.634 1195.98 318.65C1196.87 318.65 1197.77 318.65 1198.66 318.65C1230.22 318.65 1255.39 325.451 1277.86 340.042C1289.41 347.529 1299.83 356.27 1309.92 364.721C1319.05 372.376 1328.5 380.289 1338.72 387.226C1359.98 404.243 1386.82 416.434 1410.31 426.535C1411.85 427.182 1413.8 427.977 1416.02 428.864C1428.7 433.956 1449.95 442.452 1449.31 450.469C1449.03 454.08 1444.61 457.03 1435.78 459.489C1411.85 466.167 1387.06 471.376 1363.11 476.41C1329.64 483.443 1295.05 490.716 1262.31 502.105C1227.52 514.211 1204.08 527.469 1188.55 543.859C1174.38 558.806 1165.35 576.471 1156.55 593.54L1153.98 598.549C1131.33 642.387 1095.1 674.436 1046.3 693.789C1025.42 702.059 990.328 711.687 959.912 711.687ZM1198.62 319.712C1197.74 319.712 1196.86 319.712 1195.98 319.712C1113.94 320.689 1061.51 335.694 1040.18 364.307C1025.38 384.172 1031.11 406.366 1037.17 429.841C1042.41 450.1 1047.82 471.059 1038.86 490.457C1028.14 513.648 1005.87 528.925 984.344 543.697C971.648 552.42 958.512 561.433 947.768 572.019C919.064 600.289 901.616 643.125 904.352 678.583C908.76 699.826 927.456 710.632 959.912 710.632C990.096 710.632 1024.97 701.056 1045.67 692.851C1094.18 673.614 1130.2 641.733 1152.74 598.141L1155.3 593.152C1164.1 575.999 1173.18 558.276 1187.47 543.219C1203.13 526.686 1226.74 513.318 1261.75 501.16C1294.55 489.739 1329.25 482.46 1362.77 475.413C1386.69 470.379 1411.44 465.183 1435.34 458.512C1443.5 456.241 1447.75 453.517 1448 450.417C1448.58 443.119 1427.82 434.785 1415.41 429.815C1413.17 428.916 1411.22 428.126 1409.67 427.466C1386.11 417.34 1359.17 405.091 1337.83 387.996C1327.61 381.059 1318.14 373.113 1308.98 365.446C1298.92 357.034 1288.51 348.299 1277.05 340.857C1254.8 326.435 1229.87 319.712 1198.62 319.712Z" fill="#EFF1F2"/>
<path d="M983.248 686.996C954.448 686.996 938.624 675.233 937.52 652.974C937.186 632.038 943.596 611.393 956.12 593.069C967.464 576.414 984.704 563.46 1001.38 550.945C1020.18 536.82 1039.62 522.216 1050.18 502.416C1062.18 479.937 1058.18 454.831 1053.38 435.478C1052.82 433.226 1052.22 430.948 1051.61 428.606C1046.58 409.44 1040.87 387.718 1053.85 369.982C1080.44 333.592 1154.36 330.758 1176.38 330.758C1181.82 330.758 1187.2 330.9 1192.42 331.172C1249.66 334.135 1285.34 362.399 1322.82 396.253C1324.42 397.696 1326.07 399.152 1327.74 400.634C1344.42 415.341 1363.29 432.016 1350.63 451.835L1350.46 452.004C1329.3 466.019 1306.22 474.871 1282.46 483.438L1279.06 484.661C1230.52 502.131 1180.35 520.249 1156.4 560.878L1155.27 563.084C1135.02 602.658 1115.88 640.013 1069.78 664.226C1052.98 673.02 1014.66 686.996 983.248 686.996ZM1176.4 331.793C1154.55 331.793 1081.2 334.588 1054.98 370.507C1042.27 387.893 1047.91 409.401 1052.88 428.386C1053.51 430.709 1054.1 433.013 1054.66 435.264C1059.51 454.767 1063.53 480.073 1051.4 502.824C1040.71 522.831 1021.18 537.506 1002.27 551.709C985.68 564.178 968.512 577.074 957.264 593.574C944.864 611.738 938.523 632.2 938.864 652.948C939.936 674.838 954.864 685.948 983.296 685.948C1014.44 685.948 1052.46 672.081 1069.11 663.34C1114.89 639.314 1133.95 602.095 1154.13 562.683L1155.26 560.444C1179.44 519.401 1229.83 501.258 1278.56 483.703L1281.98 482.474C1305.62 473.952 1328.58 465.152 1349.58 451.253C1361.72 432.12 1343.18 415.768 1326.85 401.326C1325.16 399.851 1323.5 398.382 1321.9 396.945C1284.61 363.266 1249.1 335.145 1192.38 332.201C1187.14 331.942 1181.77 331.793 1176.4 331.793Z" fill="#EFF1F2"/>
<path d="M1003.6 665.461C983.6 665.461 971.6 656.738 968.064 639.527C963.136 601.816 993.88 576.995 1023.62 552.982C1029.22 548.453 1034.98 543.807 1040.34 539.174C1061.88 520.597 1072.12 502.868 1072.51 483.378C1072.82 468.043 1069.35 452.766 1065.99 437.987C1064.39 430.992 1062.79 423.752 1061.54 416.634C1057.68 394.142 1060.37 375.669 1085.98 358.587C1103.84 349.955 1125.26 344.125 1147.99 341.659C1156.12 340.789 1164.3 340.357 1172.5 340.365C1212.43 340.365 1247.53 350.718 1271.32 369.425C1292.38 381.952 1310.98 404.67 1320.04 421.623C1329.1 438.576 1318.21 454.351 1287.84 468.768C1274.68 475.005 1260.64 480.641 1247.04 486.089C1218.76 497.439 1189.5 509.177 1166.29 527.158C1147.65 541.594 1138.02 561.006 1128.69 579.784C1119.35 598.561 1109.8 617.895 1091.22 632.707C1073.31 645.894 1033.1 665.461 1003.6 665.461ZM1172.48 341.349C1164.34 341.343 1156.22 341.776 1148.15 342.643C1125.58 345.082 1104.34 350.874 1086.7 359.389C1061.63 376.115 1059.01 394.298 1062.79 416.434C1064.01 423.551 1065.65 430.792 1067.24 437.787C1070.62 452.611 1074.1 467.939 1073.79 483.385C1073.38 503.146 1063.04 521.095 1041.26 539.879C1035.88 544.519 1030.1 549.191 1024.51 553.707C994.992 577.551 964.464 602.191 969.312 639.365C972.752 655.968 984.28 664.412 1003.58 664.412C1032.75 664.412 1072.59 645.001 1090.34 631.878C1108.74 617.235 1118.25 597.959 1127.49 579.318C1136.84 560.443 1146.51 540.928 1165.36 526.33C1188.72 508.212 1218.06 496.468 1246.44 485.087C1260.04 479.645 1274.03 474.015 1287.14 467.791C1316.86 453.691 1327.51 438.272 1318.82 421.966C1309.83 405.142 1291.39 382.605 1270.46 370.149C1246.8 351.566 1212.05 341.349 1172.46 341.349H1172.48Z" fill="#EFF1F2"/>
<path d="M1032.72 632.247C1021.77 632.247 1014.03 628.015 1010.38 620.024L1010.33 619.875C1007.93 587.283 1041.78 567.062 1071.64 549.223C1074.36 547.601 1077.03 545.998 1079.64 544.415C1102.04 530.827 1100.1 519.989 1096.2 498.474L1096 497.355C1093.16 481.605 1088.87 466.186 1084 449.103C1074.1 414.551 1067.54 376.322 1115.39 360.12C1132.67 354.381 1151.17 351.45 1169.85 351.495C1190.89 351.495 1211.5 355.131 1229.44 361.996C1253.36 371.152 1283.04 393.702 1291.34 415.534C1295.47 426.385 1294.34 436.318 1288 445.059C1277.6 459.379 1257.6 468.166 1239.95 475.918L1235.15 478.046C1221.46 484.122 1207.3 489.926 1193.62 495.517C1186.02 498.636 1178.17 501.852 1170.48 505.081C1165.98 506.97 1161.63 508.672 1157.43 510.315C1140.98 516.786 1126.78 522.338 1110.06 536.016C1099.34 545.826 1100.24 555.836 1101.12 565.516C1101.7 571.799 1102.27 578.295 1099.65 584.591C1092.73 601.072 1080.9 614.356 1065.4 622.994C1057.34 627.459 1044.56 632.247 1032.72 632.247ZM1011.6 619.733C1015.12 627.342 1022.22 631.199 1032.71 631.199C1044.26 631.199 1056.78 626.508 1064.63 622.14C1079.88 613.625 1091.55 600.522 1098.38 584.255C1100.93 578.166 1100.38 572.058 1099.79 565.6C1098.9 555.706 1097.96 545.463 1109.06 535.311C1125.96 521.483 1140.96 515.608 1156.82 509.383C1161.02 507.74 1165.35 506.045 1169.83 504.155C1177.52 500.92 1185.38 497.685 1193.03 494.598C1206.7 488.988 1220.86 483.197 1234.52 477.128L1239.36 474.999C1256.86 467.312 1276.69 458.602 1286.9 444.529C1293.06 436.052 1294.14 426.411 1290.14 415.845C1281.94 394.272 1252.54 372 1228.89 362.941C1211.13 356.141 1190.72 352.543 1169.86 352.543C1151.35 352.484 1133 355.378 1115.87 361.058C1068.95 376.943 1075.46 414.699 1085.23 448.838C1090.14 465.94 1094.42 481.379 1097.23 497.173L1097.44 498.293C1101.28 519.549 1103.39 531.254 1080.39 545.243C1077.77 546.829 1075.1 548.427 1072.39 550.058C1042.8 567.729 1009.33 587.762 1011.6 619.733Z" fill="#EFF1F2"/>
<path d="M1427.11 723.289C1460.02 737.317 1496.8 738.126 1532.38 738.922C1551.51 739.343 1571.31 739.783 1590.23 742.287C1606.84 744.04 1620.3 750.802 1629.13 761.847C1639.92 775.384 1642.56 793.799 1636.16 811.114C1628.25 832.467 1617.28 846.774 1600.58 857.431C1587.78 865.59 1573.59 869.421 1558.59 873.478C1551.66 875.361 1544.49 877.296 1537.47 879.696C1509.62 889.253 1494.16 901.204 1490.22 916.235C1486.34 919.024 1487.23 929.604 1488.62 939.627C1488.73 940.384 1488.81 941.018 1488.86 941.484C1490.26 953.131 1494.52 964.234 1498.9 974.542C1501.54 980.747 1504.43 987.173 1507.22 993.371C1522.93 1028.27 1539.07 1064.19 1531.27 1100H1532.58C1540.35 1063.98 1524.18 1027.99 1508.45 993.022C1505.65 986.817 1502.76 980.398 1500.12 974.206C1495.76 963.956 1491.52 952.898 1490.14 941.38C1490.09 940.901 1489.99 940.267 1489.9 939.51C1489.1 934.043 1487.1 919.503 1491.18 916.928L1491.37 916.811L1491.42 916.624C1495.18 901.877 1510.42 890.094 1537.94 880.66C1544.91 878.266 1552.07 876.338 1558.98 874.474C1574.09 870.385 1588.35 866.528 1601.38 858.253C1618.3 847.46 1629.38 833.017 1637.38 811.412C1643.87 793.812 1641.18 775.067 1630.18 761.278C1621.14 749.98 1607.38 743.057 1590.4 741.264C1571.42 738.747 1551.57 738.307 1532.38 737.874C1496.94 737.091 1460.32 736.282 1427.7 722.344C1410.82 715.149 1392.07 701.904 1398.57 679.638C1403.86 661.488 1419.91 644.315 1434.06 629.168L1434.91 628.262C1478.55 581.538 1523.12 565.439 1571.19 579.021C1608.04 589.438 1634.32 607.86 1662.14 627.363C1669.16 632.293 1676.45 637.398 1683.93 642.387C1724.42 669.37 1776.27 665.973 1821.7 660.647L1826.93 660.058C1858.07 656.545 1916.06 650.01 1916.9 619.248C1917.35 602.528 1896.3 587.018 1884.99 578.691C1878.86 574.161 1872.38 569.858 1866.12 565.691C1852.52 556.633 1838.42 547.263 1827.52 535.48C1814.24 521.115 1806.66 503.884 1799.35 487.229C1791.14 468.581 1782.68 449.305 1766.18 434.17C1760.68 429.123 1751.45 423.817 1741.68 418.214C1715.43 403.157 1685.68 386.081 1704.63 363.259C1709.93 356.866 1716.76 353.288 1724.9 352.628C1750.68 350.531 1784.52 377.578 1800.79 390.584C1801.86 391.445 1802.86 392.254 1803.81 392.985C1834.93 417.664 1875.09 435.315 1917.98 451.634V450.483C1875.4 434.261 1835.58 416.7 1804.7 392.247L1801.68 389.847C1785.27 376.737 1751.16 349.444 1724.78 351.599C1716.22 352.291 1709.09 356.025 1703.55 362.69C1683.91 386.353 1715.55 404.496 1740.93 419.068C1750.65 424.645 1759.82 429.906 1765.21 434.869C1781.55 449.861 1790.01 469.047 1798.14 487.591C1805.49 504.324 1813.09 521.633 1826.49 536.121C1837.49 548.007 1851.63 557.415 1865.3 566.533C1871.55 570.7 1878.02 574.996 1884.14 579.474C1895.29 587.685 1916.06 602.988 1915.6 619.229C1914.8 649.104 1857.52 655.561 1826.76 659.023L1821.5 659.631C1776.35 664.905 1724.82 668.302 1684.76 641.585C1677.27 636.609 1670.01 631.51 1662.98 626.586C1635.06 607.006 1608.7 588.533 1571.62 578.057C1522.96 564.307 1477.9 580.522 1433.9 627.647L1433.04 628.553C1419.5 643.028 1402.68 661.048 1397.32 679.412C1392.05 697.562 1402.34 712.723 1427.11 723.289Z" fill="#EFF1F2"/>
<path d="M1143.03 492.011C1125.59 492.011 1117.7 480.617 1108.49 464.511C1102.25 453.628 1099.23 441.748 1096.33 430.217C1095.58 427.221 1094.82 424.225 1094 421.243C1091.94 405.312 1096.56 392.164 1107.72 382.121C1120.75 370.384 1142.8 363.654 1168.18 363.654C1214.46 363.654 1264.33 385.92 1267.72 423.184C1271.03 459.49 1199.61 482.247 1156.89 489.973C1152.43 491.242 1147.75 491.93 1143.03 492.011ZM1168.18 364.722C1143.16 364.722 1121.47 371.328 1108.67 382.84C1097.77 392.655 1093.26 405.525 1095.26 421.1C1096.06 424.025 1096.86 427.027 1097.59 430.03C1100.49 441.47 1103.49 453.324 1109.66 464.071C1118.67 479.814 1126.34 490.963 1143.03 490.963C1147.64 490.888 1152.2 490.233 1156.56 489.022C1198.96 481.361 1269.69 458.914 1266.44 423.32C1263.11 386.631 1213.86 364.722 1168.18 364.722Z" fill="#EFF1F2"/>
<path d="M330.584 453.589C329.352 453.586 328.121 453.53 326.896 453.421C303.216 451.357 281.504 434.397 272.304 418.712L272.248 418.577C267.808 396.001 297.336 376.589 316.992 369.672C318.435 369.453 319.9 369.342 321.368 369.342C345.112 369.342 358.808 397.282 360.864 412.248C362.264 422.407 360.376 437.451 350.464 446.439C348.003 448.738 344.946 450.571 341.51 451.807C338.074 453.043 334.344 453.651 330.584 453.589ZM273.504 418.331C282.576 433.737 303.856 450.367 327.032 452.385C328.212 452.49 329.397 452.544 330.584 452.547C334.159 452.612 337.707 452.039 340.977 450.869C344.247 449.7 347.159 447.962 349.504 445.779C359.104 437.05 360.952 422.342 359.584 412.397C357.568 397.761 344.296 370.416 321.368 370.416C320.028 370.42 318.69 370.513 317.368 370.694C298.216 377.43 269.248 396.382 273.504 418.298V418.331Z" fill="#EFF1F2"/>
<path d="M1161.33 471.512C1150.84 471.512 1142.13 469.014 1135.33 464.09C1120.67 453.44 1115 438.143 1111.72 426.004C1109.59 411.97 1113.56 399.928 1123.17 391.128C1133.77 381.422 1151.17 375.857 1170.87 375.857C1196.13 375.857 1227.67 385.725 1241.22 407.783C1246.53 416.434 1247 425.118 1242.59 433.588C1234.34 449.435 1209.79 461.949 1189.1 467.313C1178.05 470.179 1169.2 471.512 1161.33 471.512ZM1170.87 376.899C1151.53 376.899 1134.49 382.341 1124.13 391.827C1114.78 400.387 1110.92 412.144 1112.98 425.83C1116.18 437.762 1121.78 452.857 1136.18 463.32C1142.82 468.134 1151.05 470.47 1161.34 470.47C1169.1 470.47 1177.8 469.176 1188.72 466.316C1209.13 461.023 1233.33 448.729 1241.42 433.18C1245.67 425.008 1245.22 416.622 1240.08 408.256C1226.75 386.592 1195.72 376.899 1170.87 376.899Z" fill="#EFF1F2"/>
<path d="M1172.08 446.672C1157.68 446.672 1141.47 440.848 1139.28 424.594C1137.33 417.315 1138.94 410.773 1143.97 405.726C1150.08 399.579 1161.08 395.91 1173.38 395.91C1188.82 395.91 1202.28 401.501 1208.58 410.501C1213.74 417.93 1214.02 425.267 1209.38 431.705C1202.97 440.518 1187.66 446.672 1172.08 446.672ZM1173.36 396.952C1161.44 396.952 1150.83 400.478 1144.95 406.38C1140.15 411.174 1138.66 417.418 1140.53 424.433C1142.33 437.723 1154.13 445.63 1172.08 445.63C1187.22 445.63 1202.08 439.684 1208.22 431.175C1212.61 425.073 1212.33 418.104 1207.42 411.019C1201.38 402.342 1188.33 396.952 1173.36 396.952Z" fill="#EFF1F2"/>
</g>
</g>
<path d="M-5 185C40.2874 185 77 148.287 77 103C77 57.7127 40.2874 21 -5 21C-50.2873 21 -87 57.7127 -87 103C-87 148.287 -50.2873 185 -5 185Z" fill="#FFC119"/>
<path d="M897.5 532C955.214 532 1002 485.214 1002 427.5C1002 369.786 955.214 323 897.5 323C839.786 323 793 369.786 793 427.5C793 485.214 839.786 532 897.5 532Z" fill="#FFC119"/>
<path opacity="0.2" d="M1560.5 153C1618.21 153 1665 106.214 1665 48.5C1665 -9.21376 1618.21 -56 1560.5 -56C1502.79 -56 1456 -9.21376 1456 48.5C1456 106.214 1502.79 153 1560.5 153Z" fill="#EFF1F2"/>
<path opacity="0.1" d="M137.5 132C154.897 132 169 117.897 169 100.5C169 83.103 154.897 69 137.5 69C120.103 69 106 83.103 106 100.5C106 117.897 120.103 132 137.5 132Z" fill="#EFF1F2"/>
<path d="M1910 353C1955.29 353 1992 316.287 1992 271C1992 225.713 1955.29 189 1910 189C1864.71 189 1828 225.713 1828 271C1828 316.287 1864.71 353 1910 353Z" fill="#FFC119"/>
</g>
</svg>
